/* XPM */
static char *dummy[]={
"64 64 376 2",
"dM c #0bb5b8",
"cU c #0cb5b8",
"dI c #0cb6b9",
"cx c #0db5b8",
"cs c #0db6b9",
"cy c #0eb6b9",
"d1 c #0fb7b9",
"ct c #0fb7ba",
"## c #11bcc2",
"cw c #12babd",
"cj c #12bbc1",
"bD c #12bcc2",
"cK c #13bbbd",
"cr c #13bbbe",
"db c #13bbc1",
"c1 c #13bcc2",
"dd c #14bcbe",
".f c #14bcc2",
".g c #15bdc3",
"cT c #16bbbd",
"cX c #17bcbe",
"da c #19c0c5",
"dZ c #19c0c6",
"dY c #1abbbd",
"d0 c #1abcbd",
".e c #1ac1c6",
"dL c #1bbcbd",
"dH c #1bbdbe",
"cZ c #1bc1c5",
".I c #1bc1c6",
"dp c #1cc1c6",
"c0 c #1cc2c6",
"dD c #1dc1c6",
"du c #1dc2c7",
"ci c #20c1c5",
"bC c #21c2c6",
"#. c #25c3c7",
"#B c #26c3c7",
"cv c #37d8dc",
"cB c #39d9dc",
"dP c #39dadd",
"cH c #3adadc",
"dS c #3adadd",
"dQ c #3adbdd",
".m c #3bdce0",
".l c #3cdde0",
"cu c #3cdde1",
".b c #3ddde0",
".n c #3ddee0",
".a c #3edee0",
"cA c #3edee1",
"bk c #3fdfe0",
"cG c #3fdfe1",
".D c #40dfe0",
"cq c #41dbdd",
".C c #41dfe0",
"dq c #41dfe1",
"aI c #41e0e0",
"dE c #42dfe1",
".E c #42e0e0",
"dm c #42e0e1",
".q c #42e5de",
"cJ c #43e3dd",
"dT c #43e4dd",
"dR c #43e4de",
"cL c #44e4dd",
".d c #44e5de",
".B c #45dfe0",
".z c #45e0e1",
".k c #45e8e1",
".j c #45e9e1",
"co c #46e0e0",
".A c #46e0e1",
"cQ c #46e5dd",
"c9 c #46e6de",
".o c #46e8e1",
".i c #46e9e1",
".y c #47e0e1",
"cC c #47e1e1",
"cp c #47e1e2",
"cF c #47e7e1",
"a3 c #47e8e1",
".h c #47e9e1",
".p c #47eae2",
"bX c #48e1e1",
".# c #48e8e1",
"a4 c #48e9e1",
"Qt c #49e9e1",
"cI c #49e9e2",
"a2 c #49eae1",
"cM c #49eae2",
".r c #4ae9e1",
"aK c #4aeae1",
".c c #4aeae2",
"cn c #4be9e1",
"bl c #4be9e2",
"aJ c #4beae1",
"a5 c #4beae2",
"bm c #4ceae2",
"cP c #4cebe2",
"df c #4deae1",
"b4 c #4debe1",
"dg c #4eeae2",
"cc c #4eebe1",
"cW c #4eebe2",
".H c #4fe6df",
"aG c #4feae1",
"aL c #4febe2",
"bn c #4febe3",
"aH c #50eae1",
"c4 c #52ebe1",
".F c #53eae2",
"aF c #53ebe2",
".s c #54eae2",
".J c #54ebe2",
".u c #55ebe2",
".t c #56ebe2",
".v c #56ebe3",
".x c #57eae3",
".G c #57ece3",
"cS c #59eadc",
".w c #59ebe3",
"c5 c #5aeadd",
"cV c #5bebdc",
"cY c #5cebdd",
"dl c #5cecdd",
"dU c #5debdd",
"dV c #5decde",
"aR c #5df0de",
"d# c #5eede0",
".5 c #5eeee0",
".3 c #5feee0",
"ai c #5fefe0",
".4 c #60eee0",
"c# c #60efe0",
"aS c #60f0df",
"a1 c #60f0e0",
"ah c #61efe0",
"#R c #61f0e0",
"bP c #61f1e0",
"aT c #61f1e1",
"bV c #62efe0",
"di c #62efe1",
"#v c #62f0e0",
"bU c #62f0e1",
"#t c #63f0e0",
"cR c #63f0e1",
"b6 c #63f1e1",
".2 c #64efe1",
"#u c #64f0e0",
"bf c #64f0e1",
"a8 c #64f1e1",
"c6 c #65efe0",
"bH c #65f0e0",
"cf c #65f0e1",
"do c #65f0e6",
"b3 c #65f1e1",
"bQ c #65f1e2",
"dx c #65f1e7",
"cd c #66f0e0",
"a0 c #66f1e1",
"bg c #66f1e2",
"dt c #66f1e7",
"dk c #66f2e2",
"dy c #66f2e9",
"cz c #67f1e1",
"c3 c #68f1e0",
"ba c #68f1e1",
"bx c #68f4e9",
".6 c #69efe2",
"#s c #69f1e1",
"b7 c #69f1e2",
"ce c #69f2e1",
"dn c #69f4e9",
"a6 c #69f5ea",
"aj c #6af0e2",
"dC c #6af1e7",
"b5 c #6af4e9",
"dr c #6af4ea",
"dj c #6af5e9",
"dh c #6af5ea",
"a7 c #6af6eb",
"aE c #6bf0e1",
"dv c #6bf4ea",
"a9 c #6bf5ea",
"aW c #6bf6eb",
"aD c #6cf1e2",
"bT c #6cf4e9",
"bq c #6cf5e9",
"aU c #6cf5ea",
"b. c #6cf6eb",
"cE c #6df2e1",
"br c #6df5ea",
"bW c #6df6ea",
"aV c #6df6eb",
"as c #6ef1e1",
"#w c #6ef1e2",
"c. c #6ef5ea",
"by c #6ef6eb",
"dz c #6ff5ea",
"bb c #6ff6eb",
"dw c #6ff7ec",
"ax c #70f6eb",
"ds c #70f7ec",
"at c #71f1e2",
"bO c #71f1e3",
"aC c #71f2e2",
"au c #71f2e3",
"bw c #71f5ea",
"bS c #71f6ea",
"bv c #71f6eb",
"av c #72f5ea",
"b2 c #72f6ea",
"aw c #72f6eb",
"aM c #73f5ea",
"dA c #73f6eb",
"dB c #74f7ec",
"bh c #75f6eb",
"aO c #75f6ec",
"bu c #76f6eb",
"aX c #76f6ec",
"bc c #77f6ec",
"aN c #78f6ec",
"ay c #7af6eb",
"ar c #7df2e4",
"aP c #7ff6ec",
"dX c #83edde",
"ch c #88f2e2",
"dG c #8bf3e2",
"dW c #8cf3e2",
"c2 c #8ef5e5",
"bG c #8ff4e3",
".1 c #8ff6e5",
"dK c #90f3e2",
"bJ c #90f4e3",
"c7 c #90f7e5",
"b9 c #91f6e5",
"c8 c #91f8e6",
"dO c #92f4e3",
"cb c #92f5e3",
".U c #92f6e5",
"ck c #92f7e5",
".V c #93f6e5",
"bj c #93f8e5",
"cm c #93f8e6",
"bB c #94f4e4",
".0 c #94f6e5",
"ag c #94f7e5",
"af c #94f7e6",
"ad c #94f8e6",
"bR c #94f9e6",
"ae c #95f8e6",
"cg c #96f7e6",
"aZ c #96f8e5",
"de c #96f8e6",
"#4 c #96f9e6",
"b8 c #97f8e5",
"cl c #97f8e6",
"bE c #97f9e6",
"cD c #98f6e6",
".W c #98f7e6",
"b# c #98f8e5",
"#5 c #98f9e6",
"dc c #99f8e5",
"ac c #99f8e6",
"#r c #99f9e5",
"bi c #99f9e6",
"#6 c #99f9e7",
"#K c #9af9e6",
"bY c #9bf6e7",
".T c #9bf7e7",
"#I c #9bf9e6",
"dF c #9bfae7",
"aB c #9cf8e6",
"aY c #9cf9e6",
"bz c #9cf9e7",
"#j c #9cfae6",
"#J c #9df9e6",
"cO c #9df9e7",
"#l c #9dfae6",
"#Q c #9ef9e6",
"#k c #9efae6",
"bF c #9efae7",
"d. c #9ff9e6",
"#3 c #9ff9e8",
"#q c #9ffae6",
"bI c #9ffae7",
"#L c #a0f9e7",
"b1 c #a0f9e8",
"dJ c #a0fae7",
"#7 c #a1f9e7",
"ca c #a1fbe7",
"aA c #a2f9e7",
"dN c #a2fbe8",
"#P c #a3f9e7",
"#m c #a3fae7",
"bA c #a4fae8",
"#H c #a5f9e8",
"b0 c #a6f9e8",
"#i c #a6fae8",
"bZ c #a7fae8",
".9 c #b5f4ec",
".K c #baf8ef",
"bp c #bcf5ec",
".7 c #bcf8ee",
"ak c #bffaef",
"#U c #c0f5ed",
".X c #c0f9ef",
"bs c #c0faef",
"be c #c1f5ed",
"#A c #c2f5ed",
"ab c #c2faef",
".M c #c4f9f0",
"az c #c4fbef",
"bt c #c4fbf0",
".Z c #c5f9f0",
".Y c #c6f9f0",
".L c #c7f9f0",
"a# c #c7faef",
"cN c #c7fbef",
".N c #c8f9f0",
"#V c #c8f9f1",
"aa c #c8faef",
"a. c #c8faf0",
".8 c #c8faf1",
"#8 c #c8fbef",
"am c #c8fbf0",
"#x c #c9faef",
"aQ c #c9fbf0",
"an c #c9fbf1",
"al c #cafbf0",
"#9 c #ccfbf0",
"#M c #cdfbf0",
"#O c #cefbf0",
"#n c #cffbf0",
"#C c #cffbf1",
"ao c #d0fbf1",
"bo c #d0fcf1",
"#S c #d1fbf1",
"#N c #d2fbf1",
"#b c #d3fbf1",
"#p c #d4fbf1",
"#W c #d4fbf2",
"#o c #d5fbf1",
"#D c #d5fbf2",
"#T c #d5fcf2",
"#y c #d6fbf1",
"bd c #d6fcf2",
"#a c #d7fbf1",
"#X c #d7fbf3",
"#c c #d8fbf2",
"#z c #d8fcf2",
"bK c #e2f8f6",
".S c #e3f8f6",
"bN c #e4f9f6",
"#2 c #e5f9f6",
".O c #e6f8f7",
"ap c #e7f8f7",
".Q c #eaf8f8",
"#Y c #eaf9f7",
".P c #ebf8f8",
".R c #ecf8f8",
"#0 c #ecf9f8",
"#Z c #edf9f8",
"#1 c #eef9f8",
"bL c #f4faf8",
"bM c #f4faf9",
"#h c #f5faf8",
"#d c #f9faf9",
"aq c #f9fafa",
"#f c #fdfafa",
"#F c #fdfafb",
"#e c #fefafa",
"#E c #fefafb",
"#g c #fffafa",
"#G c #fffafb",
"QtQtQtQtQtQtQtQtQtQtQtQtQtQtQt.#.a.b.b.b.b.b.b.a.#QtQtQtQtQtQtQtQtQtQt.#.a.b.b.b.b.b.b.b.b.b.b.b.b.b.b.a.#QtQtQtQtQt.c.d.e.f.g.g",
"QtQtQtQtQtQtQtQtQtQtQtQtQtQtQt.#.a.b.b.b.b.b.b.a.#QtQtQtQtQtQtQtQtQtQt.#.a.b.b.b.b.b.b.b.b.b.b.b.b.b.b.a.#QtQtQtQtQt.c.d.e.f.g.g",
"QtQtQtQt.h.i.i.i.i.i.i.i.i.i.j.k.l.m.m.m.m.m.m.l.k.i.i.i.i.i.i.i.i.i.i.k.l.m.m.m.m.m.m.m.l.l.l.l.l.l.l.n.o.i.i.i.i.i.p.q.e.f.g.g",
"QtQtQt.r.s.t.u.v.w.w.w.w.w.w.w.x.y.z.A.A.A.A.z.y.s.u.u.u.u.u.u.u.u.u.u.s.y.z.A.A.A.A.A.B.C.D.D.D.D.D.D.E.F.u.u.u.u.u.G.H.I.f.g.g",
"QtQt.i.J.K.L.M.N.O.P.Q.Q.Q.Q.R.S.T.U.V.V.V.V.V.W.X.Y.Z.Z.Z.Z.Z.Z.Z.Z.Y.X.W.V.V.V.V.V.0.1.2.3.4.4.4.4.5.6.7.L.Z.Z.Z.Z.8.9#.##.g.g",
"QtQt.i.u.L#a#b#c#d#e#f#f#f#f#g#h#i#j#k#k#k#k#l#m#n#o#p#p#p#p#p#p#p#p#o#n#m#l#k#k#k#k#q#r#s#t#u#u#u#u#v#w#x#y#p#p#p#p#z#A#B##.g.g",
"QtQt.i.u.M#b#C#D#d#E#F#F#F#F#G#h#H#I#J#J#I#I#K#L#M#b#N#N#N#N#N#N#b#b#p#O#P#J#Q#Q#k#k#q#r#s#t#u#u#u#u#R#w#x#o#b#b#S#S#T#U#B##.g.g",
"QtQt.i.u#V#c#W#X#Y#Z#0#0#0#0#1#2#3#4#5#6#L#7#L#H#8#M#9#9#9#9#9#9a.a#aaabacadaeafag.V.0.1.2.3.4.4ahahaiajakalamanao#S#T#U#B##.g.g",
"QtQt.i.wap#daq#Yarasatatatatatauavawaxayaz#O#M#8#H#L#7#7#7#7aAaBaCaD#waEaFaGaHaH.A.A.A.B.C.D.DaI.raJaKaLaMaNaOaPaQ#b#T#U#B##.g.g",
"QtQt.i.w.P#e#E#0#waRaSaSaSaSaSaTaUaVaWaXaQ#p#b#M#L#K#I#I#I#IaYaZa0a1#vaia2.i.h.o.l.m.m.m.l.l.l.na3a4a4a5a6aVa7aOam#b#T#U#B##.g.g",
"QtQt.i.w.Q#f#F#0ataS#t#t#t#t#ta8a9b.a7aOaQ#p#b#M#7#IaYaY#J#J#Qb#ba#v#uahaJa4Qt.#.a.b.b.b.b.b.b.aa3a4.ha5a9bbb.bcaQ#pbdbe#B##.g.g",
"QtQt.i.w.Q#f#F#0ataS#t#tbfa8a8bgbhbcaOaPaz#O#M#8#7#IaYaY#5#5bibjba#v#uahaJa4Qt.#bk.a.a.a.a.a.abkblbma5bna9bbb.bcaz#Obobp#B##.g.g",
"QtQt.i.w.Q#f#F#0ataS#ta8bqbra9bhbsalaQbt#H#L#7#LaYaY#J#5bubvawbwa8#t#uahaJa4QtQt.#.#.#.#.#.#a3blbxaUa9a9bybyaVawbzaAbAbBbCbD.g.g",
"QtQt.i.w.Q#f#F#0ataS#ta8brbyb.bcal#o#p#O#L#K#I#IaYaY#J#5bvb.aVaUa8#t#uahaJa4QtQtQtQtQtQtQtQta4bmaUaxbbbbbybyaVawbEaYbFbGbCbD.g.g",
"QtQt.i.w.R#g#G#1ataS#ta8aUaVaWaXaQ#p#b#M#7#IaYaY#J#J#QbiawaVbybra8#ubHahaJa4QtQtQta4a4a4a4a4.ha5a9bbbybybybyaVaw#5#JbIbJbCbD.g.g",
".#.#.k.xbKbLbMbNbObPa8bQbwawaxayaz#O#M#8#7#IaYaY#5#5bibRbSaUbrbTbUahbV.3aJa4QtQtaJaJaJaJbmbma5bna9bbbybybWbraUbS#5#JbIbJbCbD.g.g",
".a.a.lbXbYbZb0b1b2aUaUbSbRbi#5#6#L#7#7#LaYaY#J#5bubvawbwbQa8b3bUb4aKaJaJQtQta4aJ.3bVahbUb5a9a9a9bybybybrbQa8b6b7b8#JbIbJbCbD.g.g",
".b.b.m.Ab9#j#I#4awaVaVawbi#Q#J#J#I#I#I#IaYaY#J#5bvb.aVaUa8#t#uahaJ.ha4QtQtQta4aJahbH#ub3c.bbbbbbbybybybra8#t#vbab8#JbIbJbCbD.g.g",
".b.b.m.A.V#k#J#5bvb.b.bv#5#JaYaYaYaYaYaY#J#J#QbiawaVbybra8#ubHahaJa4QtQtQta4.haKc##t#vb6aUaVaVaVbybybybra8#u#v#s#r#qcacbbCbD.g.g",
".b.b.m.A.V#k#J#5bubvbvbu#5#JaYaYaYaYaYaY#5#5bibRbSaUbrbTbUahbV.3aJa4QtQtaJaJaKcccd#sbacebwawawb2bWbrbrbTbUahc#cf.1.0cgchcicj.f.f",
".b.b.m.A.V#kaYaY#5#5#5#5aYaYaYaYaYaY#J#5bubvawbwbQa8b3bUb4aKaJaJQtQta4aJ.3bVc#cfckb#b8cl#5#5bicmb7b6b3bUb4aKaJcnco.Acpcqcrcsctct",
".b.b.m.A.V#kaYaY#J#J#J#JaYaYaYaYaYaY#J#5bvb.aVaUa8#t#uahaJ.ha4QtQtQta4aJahbH#t#sb##Q#J#J#J#J#Qb#ba#v#uahaJ.hQta3.l.mcucvcwcxcycy",
".b.b.m.A.U#l#I#IaYaYaYaYaYaYaYaY#J#J#QbiawaVbybra8#t#uahaJ.ha4a4a4a4.haKc##t#Rczb8#JaYaY#J#J#Qb##s#tbHahaJa4Qt.#.a.bcAcBcwcxcycy",
".a.a.lcCcD#m#7#LaYaYaYaYaYaYaYaY#5#5bibRawaVbybrbQa8b3bUb4aKaJaJaJaJaKcccd#sczcEb8#JaYaYclb8b#ckcfc#bV.3.ra3.#cF.a.bcAcBcwcxcycy",
".#.#.k.s.X#n#M#8#7#IaYaYaYaY#J#5bubvawawbybybybybWbrbrbTbUahahahahahc#cfckb#b8claYaY#Jb8cEcz#scdccaKaJ.rbk.a.a.a.b.bcAcBcwcxcycy",
"QtQt.i.u.Y#o#b#M#7#IaYaYaYaY#J#5bvb.aVaVbybybybybybybybra8#u#u#u#u#u#t#sb##Q#J#JaYaY#Jb8cz#R#tc#aK.ha4.#.a.b.b.b.b.bcAcBcwcxcycy",
"QtQt.i.u.Z#p#N#9#7#IaYaY#J#J#QbiawaVbybybybybybybybybybra8#t#t#t#t#t#vbab##Q#J#J#J#J#Qb##s#tbHahaJa4Qt.#.a.b.b.b.b.bcAcBcwcxcycy",
"QtQt.i.u.Z#p#N#9#7#IaYaY#5#5bibRawaVbybybybybybybWbrbrbqa8#t#t#tbfa8b6b7cmbi#5#5clb8b#ckcfc#bV.3aJa4Qt.#.a.b.b.b.a.acGcHcwcxcycy",
"QtQt.i.u.Z#p#N#9#7#I#J#5bubvawawbybybybybybybybrbQa8a8bf#t#t#ta8bqbrbrbWb2awawbwceba#scdccaKaJaJQtQtQt.#.a.b.b.acF.#cIcJcKcxcycy",
"QtQt.i.u.Z#p#N#9#7#I#J#5bvb.aVaVbybybybybybybybra8#t#t#t#t#t#ta8brbybybyaVaVaVaUb6#v#tc#aK.ha4QtQtQtQt.#.a.b.b.a.#Qt.ccLcKcxcycy",
"QtQt.i.u.Y#o#b#MaAaY#QbiawaVbybybybybybybybybybra8#t#t#t#t#t#ta8brbybybybybybybra8#t#uahaJa4QtQtQtQtQt.#.a.b.b.a.#a4cMcLcKcxcycy",
".#.#.k.s.X#n#McNcObEbibRawaVbybybybybybybWbrbrbqa8#t#t#tbfa8a8bQbrbybybybWbrbrbqa8#t#uahaJa4QtQtQtQtQt.#bk.a.abk.raJcPcQcKcxcycy",
".a.a.lcCcD#maAcObubvawawbybybybybybybybrbQa8a8bf#t#t#ta8bqbrbrbWbybybybrbQa8a8bf#t#t#uahaJa4QtQtQtQtQtQt.#.#a3.r.3bVcRcScTcUcycy",
".b.b.m.A.U#laYbEbvb.aVaVbybybybybybybybra8#t#t#t#t#t#ta8brbybybybybybybra8#t#t#t#t#t#uahaJa4QtQtQtQtQtQtQtQta4aJahbHa0cVcTcUcycy",
".b.b.m.A.V#k#J#5awaVbybybybybybybybybybra8#t#t#t#t#t#ta8brbybybybybybybra8#t#t#t#t#t#uahaJ.ha4QtQtQtQtQta4a4.haKah#ub3cVcTcUcycy",
".b.b.m.A.V#k#J#5awaVbybybybybybybWbrbrbqa8#t#t#tbfa8a8bQbrbybybybWbrbrbqa8#t#t#t#t#t#uahb4aKaJaJQtQtQtQtbmbma5cWah#ub3cVcXcsctct",
".b.b.m.A.V#k#J#5awaVbybybybybybrbQa8a8bf#t#t#ta8bqbrbrbWbybybybrbQa8a8bf#t#t#t#t#t#t#t#tahahbV.3aJa4a4bmbxaUa9b5a8#tb3cYcZcj.f.f",
".b.b.m.A.V#k#J#5awaVbybybybybybra8#t#t#t#t#t#ta8brbybybybybybybra8#t#t#t#t#t#t#t#t#t#t#t#t#ubHahaJa4a4bmaUaxbbc.a8#tb3cYc0c1.g.g",
".b.b.m.A.0#q#QbiawaVbybybybybybra8#t#t#t#v#v#vb6aUaVaVaVbybybybra8#t#t#t#t#t#t#t#t#t#t#t#t#t#uahaK.i.ia5a9bbbybra8#ua0cYc0c1.g.g",
".b.b.m.zc2#rb#cmawaVbybybWbrbrbqa8#t#t#tc3babacebwawawb2bWbrbrbqa8#t#t#t#t#t#t#t#t#t#t#t#t#t#ubVc4aHaHaFaUbbbybrbUahcRc5c0c1.g.g",
".b.b.l.Cc6#sbacebrbybybrbQa8a8bf#t#t#vbackb#b8cl#5#5bicmb7b6a8bf#t#t#t#t#t#t#t#t#t#t#t#t#t#t#vczc7aeaec8bvaVbba9cWaKcPc9.e.f.g.g",
".b.b.l.D.3#t#vb6brbybybra8#t#t#t#t#t#vbab##Q#J#J#J#J#Qb#ba#v#t#t#t#t#t#t#t#t#t#t#t#t#t#t#t#t#vbab#d.d.biawaVbba9bm.hcM.d.e.f.g.g",
".b.b.l.D.4bH#ua8brbybybra8#t#t#t#v#v#Rczb8#JaYaY#J#J#Qb##s#t#u#u#u#u#u#t#t#t#t#t#t#u#u#t#v#v#Rczb8#J#J#5awaVbba9bma4.c.d.e.f.g.g",
".b.b.l.Dd#bVahbUbTbrbrbqa8#t#t#tc3baczcEb8#JaYaYclb8b#ckcfc#ahahahahahah#t#t#t#tahahc#ahbabaczcEb8#J#J#5bSaUc.b5bma4.c.ddadb.f.f",
".b.b.b.a.raJaKb4bUb3a8bf#t#t#vbackb#b8claYaY#Jb8cEcz#scdccaKaJaJaJaJaKb4ah#u#uahb4aKaKc4c7dcb8claYaY#Jb8b7b6b3bUaJa4.ccLddcyctct",
".b.b.b.a.#a4.haJah#u#t#t#t#t#vbab##Q#J#JaYaY#Jb8cz#R#tc#aK.ha4a4a4a4.haJah#u#uahaJ.h.iaHded.#J#JaYaY#Jb8ba#v#uahaJa4.ccLcKcxcycy",
".b.b.b.a.#Qta4aJah#u#t#t#v#v#Rczb8#JaYaY#J#J#Qb##s#tbHahaJa4QtQtQtQta4aJahbHbHahaK.h.iaGded.#J#J#J#J#Qb##s#tbHahaJ.hcMcLcKcxcycy",
".b.b.b.a.#Qta4aJah#u#t#tc3baczcEb8#JaYaYclb8b#ckcfc#bV.3.ra3.#.#.#.#a3.r.3bVahaicWbma5aFc8#K#5#5clb8b#ckcfc#ahaidfaJcPcQcKcxcycy",
".b.b.b.a.#Qta4aJah#u#vbackb#b8claYaY#Jb8cEcz#scdccaKaJ.rbk.a.a.a.a.a.abk.raJaJdgbxa9dha9awawawbwceba#scdccaKaJdfaiahcRcScTcUcycy",
".b.b.b.a.#Qta4aJah#u#vbab##Q#J#JaYaY#Jb8cz#R#tc#aK.ha4.#.a.b.b.b.b.b.b.a.#a4.hbmaUaxbbbbaVaVaVaUb6#v#tc#aK.h.haJahbHa0cVcTcUcycy",
".b.b.b.a.#Qta4aJah#u#vbab##Q#J#J#J#J#Qb##s#tbHahaJa4Qt.#.a.b.b.b.b.b.b.a.#a4.hbma9bbbybybybybybra8#ubHahaJa4a4aJah#ub3cVcTcUcycy",
".b.b.b.acF.#a3.rdib3b6b7cmbi#5#5clb8b#ckcfc#bV.3.ra3.#cF.a.b.b.b.a.a.abk.raJaKcWdjc.brbrbrbrbrbTbUahbV.3aJa4a4aJbUb3dkdlcXcsctct",
".b.b.b.b.a.a.ndmdnc.brbWb2awawbwceba#scdccaKaJ.rbk.a.a.a.b.b.b.acF.#a3.r.3bVahahbfa8a8a8a8a8b3bUb4aKaJaJQtQta4bmb5c.bbdodpcj.f.f",
".b.b.b.b.b.b.ldqdrbbbybyaVaVaVaUb6#v#tc#aK.ha4.#.a.b.b.b.b.b.b.a.#Qta4aJahbH#u#t#t#t#t#t#t#t#uahaJ.ha4QtQtQta4bma9bbdsdtduc1.g.g",
".b.b.b.b.b.b.ldqdvaxbbbbbbbbbbc.b3#ubHahaJa4Qt.#.a.b.b.b.b.b.b.a.#a4.haJah#u#t#t#t#u#u#u#u#ubHahaJ.ha4a4a4a4.ha5dhbydwdxduc1.g.g",
".b.b.b.b.a.a.ndmdydrdrdra9a9a9b5bUahbV.3.ra3.#cF.a.b.b.b.a.a.abk.raJaKb4ah#u#t#tahahahahahahahaidfaJaJaJbmbma5bndzdAdBdCdDcj.f.f",
".b.b.b.acF.#.#cFdmdEdqdmblbmbmbmaJaJaJ.rbk.a.a.a.b.b.b.acF.#a3.r.3bVahah#t#t#uahb4aKaJaJaJaJaJdfaiahahbUb5a9dhdzbRbidFdGdHdIctct",
".b.b.b.a.#QtQt.#.n.l.l.na3a4a4a4a4a4a4.#.a.b.b.b.b.b.b.a.#Qta4aJahbH#u#t#t#t#uahaJ.ha4a4a4a4.haJahbH#ub3c.bbbydAbi#QdJdKdLdMcycy",
"cAcAcAcGcI.c.ccIcGcAcAcGcI.c.c.c.c.c.ccIcGcAcAcAcAcAcAcGcI.ccMcPcRa0b3b3b3b3a0cRcPcM.c.c.c.ccMcPcRa0b3dkbbdsdwdBdFdJdNdOdLdMcycy",
"dPdPdPdQdR.d.ddRdScBcBdSdR.d.d.d.d.d.ddRdScBcBcBcBcBcBcHcJcLdTcQc5dUcYcYcYcYdUc5cQdTcLcLcLcLdTcQc5dUcYdVdodtdxdCdWdKdOdXdYdMcycy",
"dZdZdZdZ.e.e.edacKcwcwcKda.e.e.e.e.e.edacKcwcwcwcwcwcwcwcKcKcKddcZc0c0c0c0c0c0cZddcKcKcKcKcKcKddcZc0c0c0dudududpdHdLdLd0d1cycycy",
".f.f.f.f.f.f.fdbcycxcxcydb.f.f.f.f.f.fdbcycxcxcxcxcxcxcxcxcxcxcycjc1c1c1c1c1c1cjcycxcxcxcxcxcxcycjc1c1c1c1c1c1cjdIdMdMdMcycycycy",
".g.g.g.g.g.g.g.fctcycyct.f.g.g.g.g.g.g.fctcycycycycycycycycycyct.f.g.g.g.g.g.g.fctcycycycycycyct.f.g.g.g.g.g.g.fctcycycycycycycy",
".g.g.g.g.g.g.g.fctcycyct.f.g.g.g.g.g.g.fctcycycycycycycycycycyct.f.g.g.g.g.g.g.fctcycycycycycyct.f.g.g.g.g.g.g.fctcycycycycycycy"};
