/* XPM */
static char *dummy[]={
"64 64 606 2",
"ev c #6c0c05",
"ew c #6d0c05",
"ex c #6e0d06",
"bH c #6f0d06",
"bI c #700d06",
"cb c #710d06",
"bJ c #710e06",
"d9 c #720d06",
"bV c #720e06",
"cc c #730e06",
"du c #730f06",
"eV c #740e05",
"dJ c #740e06",
"dt c #740f06",
"fk c #750e05",
"dR c #750e06",
"cE c #750f06",
"eQ c #760e06",
"cD c #760f06",
"eR c #770e06",
"cC c #770f06",
"bK c #780f06",
"bN c #781006",
"bL c #790f06",
"bM c #791006",
"fw c #7a0e05",
"cF c #7a0f06",
"bW c #7a1006",
"a7 c #7a1106",
"fx c #7b0e05",
"de c #7b0f06",
"cd c #7b1006",
"aF c #7b1106",
"fE c #7c0e06",
"fF c #7c0f06",
"eb c #7c1006",
"aD c #7c1106",
"dd c #7d0f06",
"d4 c #7d1006",
"aE c #7d1106",
"ey c #7d1206",
"fM c #7e0f07",
"ff c #7e1006",
"#u c #7e1106",
"en c #7e1206",
"d3 c #7f1006",
"dc c #7f1007",
"#v c #7f1106",
"eq c #7f1107",
"ai c #7f1206",
"fv c #801006",
"fu c #801007",
"#V c #801106",
"da c #801107",
"d8 c #801206",
"ea c #811106",
"#W c #811206",
"db c #811207",
"bp c #811307",
"fL c #820f07",
"fe c #821106",
"cB c #821107",
"dq c #821206",
"eo c #821207",
"c3 c #821306",
"aC c #821307",
"dN c #831007",
"ep c #831207",
"cH c #831306",
"aT c #831307",
"ft c #841007",
"aG c #841206",
"cG c #841306",
"aA c #841507",
"dX c #851106",
"bq c #851206",
"cA c #851207",
"cv c #851306",
"cf c #851307",
"cx c #851406",
"aB c #851507",
"dS c #861106",
"cU c #861306",
"ce c #861307",
"cw c #861406",
"cg c #861407",
"aS c #861507",
"fY c #871206",
"eK c #871306",
"em c #871307",
"cV c #871406",
"eI c #871408",
"dx c #881007",
"aj c #881406",
"ca c #881407",
"eJ c #881408",
"fb c #881507",
"dM c #891007",
"fX c #891207",
"#w c #891406",
"eW c #891507",
"fW c #8a1207",
"#X c #8a1406",
"c7 c #8a1506",
"bG c #8a1507",
"bP c #8a1508",
"d5 c #8b1306",
"c8 c #8b1506",
"bU c #8b1507",
"b2 c #8b1508",
"cI c #8c1406",
"c9 c #8c1506",
"ds c #8c1507",
"eS c #8c1508",
"fZ c #8d1306",
"fK c #8d1407",
"fT c #8d1506",
"bk c #8d1507",
"bO c #8d1508",
"bo c #8d1607",
"fr c #8e1407",
"fU c #8e1506",
"bl c #8e1507",
"dv c #8f1008",
"eG c #8f1407",
"gy c #8f1506",
"eH c #8f1507",
"fg c #8f1508",
"gz c #8f1606",
"c. c #8f1607",
"gd c #8f1708",
"dw c #901008",
"gU c #901506",
"d. c #901507",
"ah c #901607",
"gi c #901708",
"dK c #911008",
"fo c #911408",
"hb c #911506",
"gT c #911606",
"et c #911607",
"c# c #911608",
"bm c #911707",
"dL c #921008",
"df c #921506",
"fI c #921508",
"fV c #921606",
"dO c #921607",
"bn c #921707",
"gc c #921708",
"gl c #921808",
"fp c #931408",
"fJ c #931508",
"ch c #931607",
"aN c #931608",
"#t c #931707",
"dr c #931808",
"fq c #941408",
"fD c #941508",
"aL c #941608",
"dp c #941707",
"a9 c #941708",
"bE c #941808",
"az c #941908",
"eD c #951607",
"aM c #951608",
"#U c #951707",
"aU c #951708",
"bF c #951808",
"a6 c #951908",
"eE c #961607",
"#4 c #961707",
"aV c #961708",
"af c #961808",
"eF c #971607",
"es c #971707",
"ag c #971808",
"fS c #981607",
"e. c #981707",
"aR c #981808",
"hp c #991607",
"d7 c #991707",
"gA c #991806",
"e# c #991807",
"a4 c #991808",
"gm c #991907",
"ax c #991a08",
"hq c #9a1607",
"ci c #9a1807",
"eh c #9a1808",
"f1 c #9a1907",
"ay c #9a1a08",
"fQ c #9b1608",
"bs c #9b1808",
"#r c #9b1908",
"a5 c #9b1a08",
"fR c #9c1608",
"dP c #9c1708",
"gV c #9c1807",
"br c #9c1808",
"#s c #9c1908",
"aH c #9c1a08",
"g0 c #9d1907",
"ae c #9d1908",
"#S c #9d1a08",
"b. c #9e1808",
"#p c #9e1908",
"#T c #9e1a08",
"aO c #9f1808",
"aI c #9f1908",
"#3 c #9f1a08",
"a8 c #9f1a09",
"#q c #a01908",
"f2 c #a01a07",
"#Q c #a01a08",
"aK c #a01a09",
"ez c #a01b08",
"gN c #a01c08",
"eu c #a11908",
"#R c #a11a08",
"eY c #a11b07",
"ei c #a11b08",
"gk c #a11c08",
"b4 c #a21a08",
"f0 c #a21b08",
"eX c #a21c08",
"dy c #a31a08",
"bi c #a31b08",
"bj c #a31b09",
"eL c #a31c08",
"b5 c #a31c09",
"bt c #a41a08",
"gZ c #a41b08",
"aw c #a41b09",
"fs c #a41c08",
"aJ c #a41c09",
"hr c #a51907",
"c2 c #a51a08",
"a3 c #a51b09",
"gG c #a51c08",
"ak c #a51c09",
"ed c #a51d09",
"fd c #a61a08",
"fy c #a61c08",
"gj c #a61c09",
"gr c #a61d08",
"ec c #a61d09",
"fG c #a71c08",
"gq c #a71d08",
"#y c #a71d09",
"f7 c #a81b08",
"fN c #a81c08",
"al c #a81c09",
"cu c #a81d08",
"#x c #a81d09",
"dC c #a81e09",
"d# c #a91c09",
"cT c #a91d08",
"#Y c #a91d09",
"bz c #a91e09",
"a2 c #aa1d09",
"bS c #aa1e09",
"fj c #aa1e0c",
"gF c #ab1d09",
"by c #ab1e09",
"dg c #ac1c09",
"gs c #ac1d08",
"dh c #ac1d09",
"g1 c #ac1e08",
"#z c #ac1e09",
"eP c #ad1d08",
"bR c #ad1e09",
"eZ c #ad1f09",
"e4 c #ae1d08",
"bX c #ae1e09",
"eB c #ae1f0a",
"#j c #ae2009",
"gx c #af1c09",
"f. c #af1d08",
"cJ c #af1d09",
"gY c #af1e08",
"cy c #af1e09",
"#k c #af2009",
"gb c #b01c09",
"gC c #b01d08",
"cX c #b01d09",
"cz c #b01e09",
"a1 c #b01e0a",
"eA c #b01f0a",
"#M c #b02009",
"ek c #b0200a",
"d6 c #b11b09",
"gJ c #b11d08",
"di c #b11d09",
"cj c #b11d0a",
"cW c #b11e09",
"av c #b11e0a",
"am c #b11f09",
"ej c #b1200a",
"c1 c #b21e09",
"gp c #b21f09",
"fA c #b22009",
"bA c #b2200a",
".6 c #b31b09",
"ad c #b31d09",
"aZ c #b31e09",
"ck c #b31e0a",
"an c #b31f09",
"#. c #b31f0a",
"#l c #b32009",
"bY c #b3200a",
"cr c #b3210a",
".7 c #b41b09",
".8 c #b41c09",
"gv c #b41d09",
"a0 c #b41e09",
"bQ c #b41e0a",
"au c #b41f0a",
"fz c #b42009",
"bh c #b4200a",
"cs c #b4210a",
"ap c #b51e09",
"gw c #b51e0a",
"eC c #b51f09",
".9 c #b51f0a",
"bc c #b5200a",
"cS c #b5210a",
"dB c #b61c0a",
"g# c #b61e0a",
"dE c #b62109",
"ct c #b6210a",
"gL c #b6220a",
"dV c #b71c0a",
"gS c #b71e08",
"#o c #b71e09",
"ga c #b71e0a",
"bx c #b71f0a",
"bd c #b7200a",
"d1 c #b7210a",
"g4 c #b7210b",
"as c #b7220a",
"eN c #b7220b",
"d0 c #b81c0a",
"f4 c #b81d0a",
"#P c #b81e09",
"f5 c #b81e0a",
"eg c #b81f09",
"ao c #b81f0a",
".E c #b8200a",
"dD c #b82109",
"d2 c #b8210a",
"g2 c #b8210b",
"#A c #b8220a",
"eM c #b8220b",
"#2 c #b91e09",
"ge c #b91e0a",
"aq c #b91f09",
".C c #b9200a",
"f6 c #b9210a",
"g3 c #b9210b",
"#B c #b9220a",
"e6 c #b9230f",
"dz c #ba1c0a",
"g. c #ba1d0a",
"gh c #ba1e0a",
"aa c #ba1f0a",
".D c #ba200a",
"be c #ba210b",
"#Z c #ba220a",
"b9 c #ba230d",
"eU c #ba230f",
"dA c #bb1c0a",
"f8 c #bb1d0a",
"gf c #bb1e0a",
"ab c #bb1f0a",
"bv c #bb200a",
"ee c #bb210a",
"bf c #bb210b",
"#5 c #bb220a",
"fa c #bb240f",
"dT c #bc1b0a",
"dU c #bc1c0a",
"f9 c #bc1d0a",
"gg c #bc1e0a",
"ac c #bc1f0a",
"bw c #bc200a",
"bb c #bc210a",
"bg c #bc210b",
"aQ c #bc220a",
"fh c #bc230f",
"dY c #bd1b0a",
"dZ c #bd1c0a",
"go c #bd1f0a",
"## c #bd200a",
"gu c #bd200b",
"bu c #bd210a",
".m c #bd2209",
"#7 c #bd220a",
"cn c #bd220b",
"gM c #bd230b",
"hg c #be2109",
"b# c #be210a",
"#8 c #be220a",
"cl c #be220b",
"gD c #be230b",
"fi c #be240f",
"dk c #bf1f0a",
"#m c #bf200a",
"fB c #bf2109",
"ba c #bf210a",
".l c #bf2209",
"#f c #bf220a",
"cm c #bf220b",
"dj c #c01f0a",
"#n c #c0200a",
"hc c #c02109",
"aP c #c0210a",
"gt c #c0210b",
"#H c #c0220a",
"#N c #c1200a",
"aW c #c1210a",
"#C c #c1220a",
"bD c #c1260f",
"f3 c #c21f0b",
"#O c #c2200a",
".B c #c2200b",
"dF c #c22109",
"b3 c #c2210a",
"dl c #c2210b",
"#0 c #c2220a",
"eO c #c2230b",
"b1 c #c2260f",
"gn c #c31f0b",
"#1 c #c3200a",
".F c #c3210a",
"at c #c3210b",
"#g c #c3220a",
"#6 c #c3220b",
"hh c #c3230b",
".P c #c4200b",
".Q c #c4210a",
"aY c #c4210b",
"#I c #c4220a",
"ho c #c4230a",
"hd c #c4230b",
".z c #c5200b",
"ef c #c5220a",
"#e c #c5220b",
"e9 c #c5230a",
".A c #c6200b",
"a# c #c6220a",
"#G c #c6220b",
"cK c #c71f0b",
".N c #c7200b",
"#i c #c7210a",
"#L c #c7220a",
"#c c #c7220b",
"gE c #c72710",
"cY c #c81f0b",
".O c #c8200b",
"hs c #c82209",
".k c #c8220a",
"#d c #c8220b",
"b6 c #c8270f",
"b7 c #c82710",
"fl c #c82810",
"c5 c #c91f0b",
".5 c #c9200a",
"c4 c #c9200b",
"cL c #c9210c",
"g5 c #c9220a",
"#F c #c9220b",
".n c #c92309",
"gX c #c9250e",
"hi c #c92710",
"dn c #c92810",
"c6 c #ca210c",
"gK c #ca220a",
"aX c #ca220b",
"gB c #ca230b",
"b8 c #ca2710",
"dm c #ca2810",
".j c #cb220a",
".i c #cb230a",
"gI c #cb230b",
"fP c #cc200a",
"gP c #cc210b",
"ar c #cc220b",
"ha c #cc230a",
"gR c #cc230b",
"hj c #cd220b",
"#9 c #cd230b",
"fn c #ce210a",
"hf c #ce220a",
"#D c #ce220b",
"a. c #ce230b",
"fC c #cf210a",
"g7 c #cf220a",
"gH c #cf230b",
"gQ c #cf240c",
"fm c #cf270f",
"he c #cf2810",
"cM c #cf2a12",
"e1 c #cf2b13",
"#h c #d0220a",
"#J c #d0230b",
"do c #d0260e",
"ht c #d0270e",
".V c #d02810",
"bB c #d02a12",
"e0 c #d02b12",
".u c #d02b13",
".4 c #d1220a",
"#K c #d1230b",
".X c #d1270f",
".W c #d12810",
"bZ c #d12a12",
"cZ c #d12a13",
"e7 c #d12b12",
".v c #d12b13",
".3 c #d2220a",
"gO c #d2230a",
"hm c #d2230b",
"gW c #d22810",
"eT c #d22a13",
"fc c #d22b12",
"bC c #d22b13",
"hn c #d3230b",
"g8 c #d3240b",
"bT c #d32b13",
"h. c #d4230a",
"g9 c #d4240b",
"hl c #d4270f",
"cN c #d42811",
"c0 c #d42911",
"b0 c #d42b13",
"e5 c #d42c13",
"h# c #d5230a",
".Y c #d5240a",
".Z c #d5240b",
".w c #d52911",
".d c #d52e13",
".0 c #d6240b",
".c c #d62e13",
".2 c #d7230b",
".1 c #d7240b",
".U c #d7250b",
"f# c #d72d13",
"#a c #d8240b",
".S c #d9240b",
".T c #da240b",
".e c #da2d11",
".y c #db240c",
".M c #dd240c",
"#b c #dd250c",
"hk c #de260c",
".t c #de270c",
"g6 c #de270d",
".J c #df270c",
"hB c #df4b14",
".R c #e0250c",
"fO c #e1260b",
".h c #e1270b",
"co c #e2250c",
".x c #e2260b",
"#E c #e2260c",
"hu c #e23a11",
"e8 c #e23a12",
"dW c #e23b11",
"e3 c #e23b12",
"cO c #e3230b",
"dQ c #e3230c",
"cp c #e3250c",
"e2 c #e3260b",
".r c #e3260c",
".b c #e32a0c",
"hx c #e33910",
"dI c #e33911",
"hz c #e33b11",
"el c #e33c12",
"dG c #e4230c",
"cP c #e4240c",
".K c #e4260b",
".s c #e4260c",
"cR c #e43b12",
".H c #e43c12",
"er c #e43c13",
".I c #e5260c",
"hA c #e53a10",
".q c #e53d12",
".L c #e6260c",
"cq c #e8260c",
".G c #e8270c",
".f c #e8280a",
".g c #e8280b",
".o c #e8280c",
".# c #e8290b",
"hy c #e83d12",
"dH c #e9240c",
"cQ c #e9250c",
"fH c #e9280b",
".a c #e9290b",
"hv c #ea260b",
".p c #ed280b",
"Qt c #ed2a0c",
"hw c #ee280c",
"Qt.#.#.#.#.#.#.#.#.#.a.b.c.c.d.e.f.g.g.g.g.g.g.g.#.#.#.#.#.#.#.#.#.#.a.h.i.j.j.k.l.l.m.n.g.g.g.g.g.g.g.g.#.#.#.#.#.#.#.#.o.o.p.q",
".#.r.r.r.r.r.r.r.r.r.s.t.u.v.u.w.x.r.r.r.r.r.r.r.r.r.r.r.r.r.r.r.r.r.s.y.z.A.A.B.C.D.E.F.r.r.r.r.r.r.r.r.r.r.r.r.r.r.r.r.r.r.G.H",
".#.r.r.r.s.s.s.s.s.s.I.J.u.v.u.w.K.s.s.s.s.s.s.s.I.I.I.I.I.I.I.I.I.I.L.M.N.O.O.P.D.D.E.Q.s.s.s.s.s.s.s.s.s.s.s.s.s.s.s.r.r.r.G.H",
".#.r.r.R.y.y.y.y.S.T.T.U.V.W.V.X.Y.Z.0.1.T.T.T.2.3.3.3.3.3.3.3.3.4.4.3.5.6.7.7.8.9.9#.##.1#a#a#a.T.T.T.T.T.T.T.T.y.y.y#b.r.r.G.H",
".#.r.s.y#c#d#d#e#f#f#f#g#h#h.4#i#j#k#j#l#m#m#n#o#p#q#q#q#q#q#q#p#r#r#s#t#u#v#u#w#x#x#y#z#A#A#A#B#f#f#f#f#f#f#f#C#d#d#c#D#E.r.G.H",
".#.r.s.y#d#F#F#G#H#C#H#I#J#J#K#L#k#M#k#l#N#N#O#P#Q#R#R#R#R#R#R#Q#S#S#T#U#V#W#v#X#x#Y#x#z#B#B#B#Z#H#C#C#C#C#C#C#0#F#F#d#D#E.r.G.H",
".#.r.s.y#d#F#F#G#H#C#H#I#J#J#K#L#k#M#k#l#O#O#1#2#Q#R#R#R#R#R#R#Q#T#T#3#4#V#W#v#X#x#Y#x#z#Z#Z#Z#5#C#0#0#0#0#0#0#g#F#F#d#D#E.r.G.H",
".#.r.s.y#e#G#G#6#7#8#7#C#9#9a.a##M#M#M#laaabacadae#p#p#p#T#T#3#safagagah#vai#uajakakakalamamaman.C.C.Caoapapapaq#G#G#ear#E.r.G.H",
".#.r.s.T#f#H#H#7#A#Aas#5#d#d#Fatau.9.9av#x#x#YawagagagagaxaxayazaAaBaBaCaDaEaFaGaHaHaHaH#p#p#paIaJaJaJaKaLaMaNaOaP#H#f.k.r.r.G.H",
".#.r.s.T#f#C#C#8#A#B#AaQ#F#F#Fatau.9.9av#x#Y#YawagaRaRaRayayayazaBaSaSaTaDaEaFaGaH#S#S#S#T#T#T#3aJakakaKaUaVaLaOaW#C#f.k.r.r.G.H",
".#.r.s.T#f#C#C#8#A#B#A#7aXaXaXaYaZa0a0a1#Ya2a2a3a4a4a4a4a5a5a5a6aBaSaSaTaFaDa7aG#S#S#S#T#T#T#T#3aJaJaJa8a9aUaNb.aW#C#f.k.r.r.G.H",
".#.r.s.Sb#bababbbcbcbcbd#N#N#N#mbebfbgbhbibjaw#pbkbkbkblbmbmbnboaCaCaCbp#V#V#vbqagafafaRaeae#saIalalalawbrbrbsbtbababu#L.r.r.G.H",
".#.r.s#abvbwbwbx#z#z#zbybzbz#ybAbB.vbCbD#tbEbFbGbHbIbIbJbKbLbLbLbMbMbNaEbObObObPaAaBaAbGaRaRagaIbQ.9.9.9.9.9.9.9.C.C.E.F#E.r.G.H",
".#.r.s#abvbw##bx#zbRbR#zbSbS#xbAbB.vbTbD#tbFafbUbIbJbJbVbMbWbWbWbWbWbMaEbObObObPaBaSaBbGaRaRagaIau.9.9.9.9.9.9.9.D.D.E.F#E.r.G.H",
".#.r.s#abvbw##aobRbXbXbRbyby#YbYbZbCb0b1#tbFafbUbIbJbJbVbMbWbWbWbWbWbMaEbObObOb2aBaSaBbGa4a4aR#qbQ.9.9.9auauauau.C.Cbdb3#E.r.G.H",
".#.r.s#a.C.D.Da0b4bibibiakakb5bRb6b7b8b9c.c#c#cacbbVbVccbNbNbNbNbNbNbNcdcecececfbpaCbpcgch#tchcicjavavckaoaoaoaaclcmcn#ccocpcq.H",
".g.r.s.1crcsctcucvcwcx#XagaRagbrcycyczbtcAcececBcCbKbKcCcDcDcDcDcDcDcEcEcDcDcDcDbKbKcCcFcGcGcHcIal#Y#xcJ.N.NcKcLbBbBcMcNcOcPcQcR",
".g.r.s.1cscSctcTcUcVcw#XaRaRagaecyczcWbtcAcececBcCbKbKcCcEcEcEcEcEcEcEcEcEcEcEcEbKbKcCcFcvcvcHcIal#Y#xcX.O.OcYcLcZ.v.uc0cOcPcQcR",
".g.r.s.1cscSctcTcvcwcx#Xa4a4aR#pczcWc1c2cAcececBcDcCcCcDcDcDcDcDcDcDcDcDcDcDcDcDbKbKcCcFcGcGc3cIal#x#ycXc4c4c5c6cZ.v.v.wcOcPcQcR",
".g.r.s.1cscSctcTc7c8c8c9d.ahc.#Ualald#b.dadbdbdcdddddddecDcDcDcDcDcDcDcDcDcDcDcDcCcCcDde#X#X#wdfdgdhdhdidjdjdkdldmdmdndocOcPcQcR",
".g.r.s.1cscSctbX#saH#SdpaDaEaDdqdrbEbFdsccdtducFdvdvdwdxdtcEcEcEcEcEcEcEcEcEcEcEcEcEcc#u#SaHa5dydzdAdAdBbzbzdC#zdDdDdEdFdGdGdHdI",
".g.r.s.1cscSctbX#s#S#TdpaDaEaDdqbEbFafdsdJcEdtdedwdwdKdxdtcEcEcEcEcEcEcEcEcEcEcEcEcEcc#u#S#SaHdydzdAdAdBbzbSbzbR#B#Bas#0dGdGdHdI",
".g.r.s.1cscSctbX#s#S#TdpaE#uaEdqbFafagbkdJcEdtdedKdKdLdMdtcEcEcEcEcEcEcEcEcEcEcEcEcEcc#u#T#T#SbtdzdAdAdBbzbSbzbR#B#Bas#0dGdGdHdI",
".g.r.s.1cscSctbX#s#S#TdpbWcdbW#ubUbUdscfdJcEdtbLdxdxdMdNdtcEcEdtdudududtcEcEcEcEcEcEcccddObnbmdPdzdAdAdBbSbSbzbR#B#Bas#0dQdGdHdI",
".#.r.s.1cscSctbX#s#S#TbndJdtdtdubJbJbJbVcEcEcEcEdtdtdtdtcEcEcEdtbJbJbJbJcEcEcEcEcEcEcEcEdRdRbVdSdTdUdUdV#zbR#zcy#B#Bas#0#E.r.GdW",
".#.r.s.1cscSctbX#s#S#TbndJcEcEdtbVbVbVbVcEcEcEcEcEcEcEcEcEcEcEdtbJbJbJbJcEcEcEcEcEcEcEcEcEcEccdSdTdUdUdV#zbR#zcy#B#Bas#0#E.r.GdW",
".#.r.s.1cscscSbX#s#S#TbndJdtdtdtbVbVbVbVcEcEcEcEcEcEcEcEcEcEcEdtbJbJbJbJdtdtdtdtcEcEcEcEdtdtbJdXdYdZdZd0#zbR#zcy#B#Bas#0#E.r.GdW",
".#.r.s.1ctd1d2czae#S#3#tcDcCcCcEbVbVbVbVcEcEcEcEcEcEcEcEcEcEcEdtbJbJbJccdededebLdtcEcEcCd3d3d4d5.7.7.7d6by#zbycy#Z#Z#A#g#E.r.GdW",
".#.r.s.T#m#n#N#P#Q#Rb4d7#vd8d8aDd9d9d9d9cEcEcEcEcEcEcEcEcEcEcEcEcEcEdtdedvdvdwdxdtcEcc#u#s#sae#s#T#T#T#QbSbSbzbX#H#H#f.k.r.r.GdW",
".#.r.s.T#m#N#O#P#R#Rb4d7#V#W#WaEbVbVbVbVcEcEcEcEcEcEcEcEcEcEcEcEcEcEdtdedwdwdKdxdtcEcc#u#S#S#S#S#T#T#T#QbSbSbzbX#H#C#f.k.r.r.GdW",
".#.r.s.T#m#N#O#P#R#Rb4e.#V#W#WaDbVbVbVbVcEcEcEcEcEcEcEcEcEcEcEcEcEcEdtdedKdKdLdMdtcEcc#u#T#T#T#T#3#3#3#RbSbSbzbX#C#C#f.k.r.r.GdW",
".#.r.s.T#m#N#O#P#R#Rb4e#ea#W#WaEccdJdJccdtdtdtdtcEcEcEcEcEcEcEcEcEcEdtbLdxdxdMdNdtcEdJeb#t#t#tdp#4#4#4ciececeda2bbbbeeef.r.r.GdW",
".g.r.s.T#f#C#0eg#R#Rb4ehcAcecedbcEcEcEdtbJbJbJbJcEcEcEcEcEcEcEcEcEcEcEcEdtdtdtdtcEcEcEcEbLbLbLbW#u#uaEcvaHaHa5eiejejekbu#E.r.Gel",
".g.r.s.T#f#C#0eg#Q#Rb4ehcAceemdbcEcEcEdtbJbJbJbJcEcEcEcEcEcEcEcEcEcEcEcEcEcEcEcEcEcEcEcDbWbWbWbWaiaiencvaH#SaHeibAbAekbu#E.r.G.H",
".g.r.s.T#f#C#0eg#R#Rb4ehcAceemdbcEcEcEdtbJbJbJbJcEcEcEdtdudududucEcEcEcEcEcEcEcEcEcEcEcDbWbWbWbWaiaiencvaH#SaHeibAbAekbu#E.r.G.H",
".g.r.s.T#f#C#0eg#R#Rb4a4eoepepeqdudududubJbJbJbVcEcEdtcD#u#u#ucdccdududtcEcEcEcEcEcEcEcDbWbWbWbWaiaiencvaH#SaHeibAbAekbu#E.r.Ger",
".g.r.s.T#f#C#0eg#q#Rb4esebaDaDbMbJbJbJbJcDcDcDcDcDcDdtd3#s#S#TetbIbJbJbJcDcDcDcDcDcDcDcCbWbWbWbWaiaiencvaH#SaHeibAbAekbu#E.r.Ger",
".g.r.s.T#f#C#0eg#q#Rb4esebaEaEbMbJbJbJbJcDcDcDcDcEcEdtd3#s#S#TetbIbJbJbJcEcEcEcEcDcDcDcCbWbWbWbWaiaiencvaH#SaHeibAbAekbu#E.r.Ger",
".g.r.s.T#f#C#0aqeub4dye.ebaEaEbMbJbJbJbJcDcDcDcDcDcDdtd3ae#T#3etevewewexcDcDcDcDcEcEcEcDbWbWbWbWeneneycvaH#SaHezeAeAeBbb#E.r.Ger",
".g.r.s.T#f#C#0eCeDeEeFeGcdcdcdbKbVbVbVbVcDcDcDcDcDcDcEebdOdOdOeHeIeJeJepdRcDcDcDcDcDcDcCbWbWbWcd#W#Wd8eK#T#T#SeLeMeMeNeO#E.r.Ger",
".g.r.s.T#f#C#gePeQeReReRcCbKbKcCbKbKbKcCcEcEcEcEcEcEcEcEdRdRd9eScZeTb0eUeVcEcEcDbWbWbWbWbWbWbMd4eWbGeWc.eXeLeYeZe0.ue1c0e2.r.Ge3",
".g.r.s.T#f#C#ge4eRbKbKbKbKbKbKbKbKbKbKcCcEcEcEcEcDcDcDcDcDcDcceS.vbCe5e6eVcDcDcCbWbWbWbWbWbWbMd4eWbGeWc.eXeLeYeZe7.v.uc0e2.r.Ge8",
".g.r.s.T#C#0e9f.eRbKbKcCeQeQeQeRcCcCcCcCcEcEcEcEdJdJdJdJdJdJcbeSe5e5f#faeVcDcDcCbWbWbWbMbMbMbNebeWeWfbc.eXeLeYeZfcbC.v.we2.r.Ge8",
".g.r.s.2a0apegfdbKbLbLdeeaeafed3cFcFcFbKcEcEcEcC#v#v#v#v#V#VfffgfhfhfifjfkcCcCcCbWbWbWcdaEaEaE#VdsdsdseteXeLeYbydndnflfme2.r.Ge8",
".g.r.Ifnfofpfqfrd8#W#vajeLeLfsbsdNftftfucCbKeQfvae#S#S#T#R#Rb4eFfwfxfxfwbKbKbKbL#W#Wd8dqbGbGeWbkagaRaReheLeLeXfyfzfzfAfB#E.r.Ge8",
".g.r.IfCfpfDfDeGd8#W#VajeLeLfsbsdNftftfucCbKeQfvae#S#S#S#R#Rb4eFfEfFfFdebKbKbKbL#W#Wd8dqbGbGeWbkagaRaReheLeLeXfGcscScr#f#E.r.Ge8",
"fH.s.LfCfofIfJfK#u#vd4cUeLeLfsbsfLfLfLfMdRdRccff#saHaH#S#R#Rb4eFfEdddddecCcCcCbK#W#Wd8dqeWeWeWdsagaRaRehfsfseLfNcscScr#f#E.r.Ge8",
"fO.y.MfPfQfRfRfSfTfUfTfVeLeLfsaefWfWfWfXfYfYdSfZf0f0f0#R#3#Q#ReEfFddddfFd4d4d4ffdqdqdqaGbkbkdsc.a4eheha4cif1e#f2cscScr#f#E.r.Ge3",
".j.z.zf3f4f4f4f5f6d2f6bYaJakakaJf0f0eif7f8f9f9g.g#g#gagb#S#T#3#UebaEaD#WgcgcgcgdeWeWeWdsagagaga4eXeXeLf1eadq#VfTcscScr#f#E.r.Ger",
".j.A.Af3f5gegege#B#B#BbYaJakakaJeLeLeXfNgfggggghg#g#gagb#S#T#3#UebaEaD#WdrdrdrgieWbGeWdsaRaRaReheXeLfsf1eafe#VfUcscScr#f#E.r.Ger",
".j.A.Af3gaf5f5f5#B#B#BbYakgjgjakeXeXgkfGghgfgfghg#g#gagb#S#T#3#UcdaFa7d8glglglgdfbeWfbbUagagaga4eXeLfsgm#v#V#uc9cscScr#f#E.r.Ger",
".j.A.Agngogogoac#Z#ZaQgpeh#r#r#pgqgqgrgsgtgtgtgugvbQgwgx#3#3#Qe#cvcvcv#wafafafbEc.c.c.bnaeaeae#3fyfyfGf2gygzfUgAd1d2ct#C#E.r.Ger",
".j.A.A.Na.a.a.gB#H#C#ggCd8dq#Vgyd2#AasgD.u.vbCgEePbXbXgFeLeLeLeLeXeLeLeXeLeLeLeLeXeXgkgGejejejejbAejejbY#B#B#B#Z#C#C#f.k.r.r.Ger",
".j.A.A.Na.gHgHgI#H#C#ggJd8dqd8gyd2#B#AgD.u.vbCgEePbXbXgFeLeLeLeLeLeLeLeLeLeLeLeLeLeLeXfybAbAbAbAbAbAbAbY#B#B#B#Z#C#C#f.k.r.r.Ger",
"gK.P.P.Aa.gHgHgI#H#H#0gC#u#V#ufTd1#AgLgM.u.vbCgEgsbRbRa2eXeXgkeXfsfsfseLgkgkgkgkgkgkgNfseAeAeAekbAbAbAbY#B#B#B#Z#C#C#f.k.r.r.Ger",
"gOgPgPargQgQgQgR#g#IefgSgTfVgUgVb##f#8eO.W.WgWgXgYczczbXgqgqgqgZgmf1gmg0cTcTcTcTcTcTcug1g2g2g3g4bYbYbYbh#Z#Z#ZaQ#0#0#Cg5.r.r.Ger",
".g.r.rg6.u.v.v.Vg7gHgHgI#C#C#Hefg8g9g9g8h.h.h#ha#A#B#B#B#B#B#Za2#W#WaihbaW#C#C#C#C#ChchdcZcZcZb8.C.D.Dbv#C#C#C#0#F#F#d#D#E.r.Ge3",
".g.r.sg6.u.v.v.Vg7gHgHgI#H#C#H#Ig8g9g9g9g9g9.ZgR#A#B#B#B#B#B#Za2#Wdq#vhbaW#C#C#C#C#Chchd.v.v.vb8.C.D.Dbv#C#C#C#0#F#F#d#D#E.r.Ge8",
".g.r.sg6e1.u.uhehfa.a.gB#f#f#8#gg8g8g8g8g8g8g9gRgLasasasasas#B#x#u#vaDfUaP#f#f#f#f#fhghh.u.u.vhibd.E.E.C#f#f#f#C#d#d#chj#E.r.Ge8",
".g.r.shkc0c0c0hlgOhmhn#J.k.k.k.i.0.0.0.0.0.0.1#K#C#0#0#0#0#0hoeghphqfShr.k.k.k.k.k.khsgIc0c0.wht#O.F.F.Q.k.k.kg5#D#D#Dhn#E.r.Ghu",
".o.r.r.re2e2e2e2#E#E#E#E.r.r.r#E.r.r.r.r.r.r.r#E#E#E#E#E#E#E#E#Ecpcpcp.r#E.r.r.r.r.r.r.re2e2e2.x#E#E#E#E.r.r.r#E#E#E#E#E.r.r.Ghu",
".o.r.r.r.r.r.r.r.r.r.r.r.r.r.r.r.r.r.r.r.r.r.r.r.r.r.r.r.r.r.r.r.r.r.r.r.r.r.r.r.r.r.r.r.r.r.r.r.r.r.r.r.r.r.r.r.r.r.r.r.r.r.Ghu",
"hv.G.G.G.G.G.G.G.G.G.G.G.G.G.G.G.G.G.G.G.G.G.G.G.G.G.G.G.G.G.G.G.G.G.G.G.G.G.G.G.G.G.G.G.G.G.G.G.G.G.G.G.G.G.G.G.G.G.G.G.G.Ghwhx",
"hy.H.H.H.H.H.H.Hhzhuhuhz.H.H.H.H.H.H.H.Hhzhuhuhuhuhuhuhuhuhuhuhz.H.H.H.H.H.H.H.Hhzhuhuhuhuhuhuhz.H.H.H.H.H.H.H.HhzhuhuhuhuhuhAhB"};
