/* XPM */
static char *b78eeeda89314263c2f4ac0d83a5aab1aQ4oW98F9xw36lsn[] = {
/* columns rows colors chars-per-pixel */
"64 64 192 2 ",
"   c #181716",
".  c #1C1C1B",
"X  c gray8",
"o  c #201F1B",
"O  c #2D2617",
"+  c #25221B",
"@  c #2B261A",
"#  c #31291B",
"$  c #3A2F19",
"%  c #3F321F",
"&  c #252222",
"*  c #2A2225",
"=  c #2E2528",
"-  c #2E292A",
";  c #382B2F",
":  c #322925",
">  c #2E2F30",
",  c #382E31",
"<  c #2E3233",
"1  c #333435",
"2  c #3A3135",
"3  c #323738",
"4  c #3C3538",
"5  c #353A3B",
"6  c #3A3B3D",
"7  c #3B332D",
"8  c #523C0E",
"9  c #463511",
"0  c #44371A",
"q  c #4C3C1A",
"w  c #493A19",
"e  c #523E2F",
"r  c #493D37",
"t  c #433B39",
"y  c #463936",
"u  c #5D440E",
"i  c #514019",
"p  c #5C4718",
"a  c #5E481A",
"s  c #594114",
"d  c #6A4C0C",
"f  c #6A4F17",
"g  c #634B1C",
"h  c #654B14",
"j  c #6C5117",
"k  c #6D531B",
"l  c #72541B",
"z  c #785717",
"x  c #594922",
"c  c #4B433C",
"v  c #554C3A",
"b  c #59513D",
"n  c #4C4124",
"m  c #715A3A",
"M  c #69553B",
"N  c #74683A",
"B  c #6B603B",
"V  c #383F40",
"C  c #403E41",
"Z  c #3C4344",
"A  c #3E4648",
"S  c #3F484A",
"D  c #424346",
"F  c #484644",
"G  c #494B45",
"H  c #414749",
"J  c #464C4E",
"K  c #4A4F4D",
"L  c #4B5048",
"P  c #595C4E",
"I  c #464E51",
"U  c #455153",
"Y  c #495254",
"T  c #4B5659",
"R  c #4D5A5C",
"E  c #565B55",
"W  c #505C5F",
"Q  c #645940",
"!  c #5C635A",
"~  c #5D6151",
"^  c #756B46",
"/  c #666955",
"(  c #676B5B",
")  c #6A6F59",
"_  c #71735A",
"`  c #63604A",
"'  c #4E5D60",
"]  c #515F62",
"[  c #536265",
"{  c #55666A",
"}  c #57696C",
"|  c #5A6B6E",
" . c #5B6864",
".. c #5E706E",
"X. c #5A6D71",
"o. c #5D7276",
"O. c #61726F",
"+. c #69766D",
"@. c #6B786F",
"#. c #787B61",
"$. c #727762",
"%. c #677975",
"&. c #62797E",
"*. c #677776",
"=. c #825C0C",
"-. c #825E1C",
";. c #8F6409",
":. c #87610F",
">. c #956A0D",
",. c #92660A",
"<. c #8D6614",
"1. c #8F6816",
"2. c #82621F",
"3. c #956C16",
"4. c #9A6F15",
"5. c #906A1A",
"6. c #9E7215",
"7. c #9F761C",
"8. c #826421",
"9. c #8A6B26",
"0. c #8F702B",
"q. c #9F7925",
"w. c #9F7B2B",
"e. c #816039",
"r. c #8D6737",
"t. c #996B36",
"y. c #8A793A",
"u. c #9A7B34",
"i. c #A07D2F",
"p. c #AA7535",
"a. c #A07D30",
"s. c #B27634",
"d. c #DC7607",
"f. c #857642",
"g. c #7F8164",
"h. c #7E8976",
"j. c #768578",
"k. c #AA8D35",
"l. c #AA9235",
"z. c #F88703",
"x. c #ED8C0C",
"c. c #C98231",
"v. c #E38C2F",
"b. c #E59A2D",
"n. c #C6A432",
"m. c #E3A42F",
"M. c #EFA62E",
"N. c #E3AE2F",
"B. c #FEAF26",
"V. c #FFAC2C",
"C. c #F3AE2D",
"Z. c #E3BB2F",
"A. c #E3B52F",
"S. c #FFB52C",
"D. c #FFBB2C",
"F. c #FEB327",
"G. c #FFCC2C",
"H. c #FDC02C",
"J. c #FFD12C",
"K. c #FFDC29",
"L. c #FFDE26",
"P. c #FFD535",
"I. c #FED43A",
"U. c #FFDB34",
"Y. c #FFE326",
"T. c #FFEC24",
"R. c #FEE138",
"E. c #828461",
"W. c #8A8B68",
"Q. c #818568",
"!. c #959569",
"~. c #9A9A6F",
"^. c #9C9562",
"/. c #899175",
"(. c #88947C",
"). c #979C78",
"_. c #9EA074",
"`. c #A7A672",
"'. c #A9A874",
"]. c #A9AB7B",
"[. c #BAB77A",
"{. c #A7A36F",
"}. c #FED440",
"|. c #FDDA5B",
" X c #FBDF73",
".X c #FBED6F",
"XX c #FBEC73",
"oX c #6A7E82",
"OX c #FAE88A",
"+X c #F9F393",
"@X c #F9F0A0",
"#X c #F9ECA1",
/* pixels */
"6 I J J J J Z H Z J Z H Z V V , J J J I K J V J V J V J V V V ; J J J J I J Z H V J V J V V V ; J J J J J S V J V J V J V V V = ",
"6 Z 6 Z V V V V V V V V V V V , H V 6 V V V V V V V V V V Z V > J V V V V V V V V V V V V V V 2 J V V V V V V V V V V V V V V = ",
"6 Z 1 [ R Z V V V V , { Y Z V , H Z o.A V o.&.&.&.Y V V Z o.5 ; I V &.V V V V V V V V V C o.V 2 C V t o.J V V V V V C X.C V 2 = ",
"6 Z 2 D I V V V V V 2 D H Z V , H 1 6 V o.4 , ; ; ; , V , 5 Z ; J ; V V V V V V V V V V , V V , J V 2 J H V V V V V 2 J J V V = ",
"V Z 1 ; 5 6 V V V V 1 ; V V V , H Z 6 o.4 ; ; > ; ; ; ; J V Z ; I V V V V V V V V V V V V V V , J V ; , V V V V V V ; ; V V V * ",
"6 Z V 6 V V V V V V 6 Z V V V , H Z o.4 ; ; d.B.S.z.; ; ; J 6 ; J V V V V V V V V V V V V V V 2 J V V V V V V V V V V V V V V = ",
"V Z Z - : , , , 5 1 5 6 H Z V , G Z o.4 ; d.B.S.S.S.z.; ; &.Z ; I V V V V V V V V V V V V V V , J V V V V V V V V V V V V V 2 = ",
"6 Z V 1 & o l 1.5.=.% & T Z Z , H V o.4 ; b.S.L.Y.D.B.; ; &.6 , J V V V V V V V V V V V V V V 2 H V V V V V V V V V V V V V V = ",
"V Z V , o j u.7.;.9 o . T Z Z , H Z o.t ; m.S.Y.T.D.D.; , &.6 ; J V V V V V V V V V V V V V V , J V V V V V V V V V V V V V V = ",
"T T J 4 z u.i.;.9 o . . T J J 6 X.I ).G 6 m.G.J.J.G.S.6 6 ].J 5 o.J J H J J H I H I I H I H J V X.J J J J J J J J C C J J J C < ",
"Z A V 2 -.7.;.9 o . . j ! Z Z 1 I Z *.t , e x.B.D.x.e ; 1 [.Z , T Z Z Z Z V V V V Z Z V V V V 2 U V S X.C V V C V V Y X.J V V = ",
"T T J 4 -.6.q o . o l 4.+.U J 6 X.Y Y | Z 6 c v b b 6 6 {.E J 6 o.H J H H J J J H I H J J J I Z X.H 4 H V J J J J C V V V U C 1 ",
"' R I 2 -.q + . o k 4.6.@.Y K 2 X.Y I Y o.Z V Z V V V `.E J J 2 &.I I J J I J I I I J J J I H t o.J ; 2 J J I J Y C ; V U I C = ",
"' R I 4 : o . . k 6.6.;.+.Y J Z o.Y I I U | _.%._.`.`.E J J J 6 &.J J J J J J I I I J J J J J A o.J C J J J J J J J C J J J J 1 ",
"' R I 2 o o . j 4.6.;.9 X.Y J 2 X.T I J J Y E Y E E P I J J J 1 &.J J J J J J K J J J J J J J 4 o.J I I I J J I J I I J J J C - ",
"' R I 4 & . j 4.6.;.9 @ R Y I V o.Y J J J J J I J J I J J K J 6 &.I J I I J J V , 4 4 J I J J D o.J I J J J I I J I J J J U H < ",
"' R J 4 & j u.q.;.9 o . T U J Z X.T I J J ~.'.'.&.o.o.I J J J V oXI J I J I V , r y V Z I I I A o.I I J J I J I J J J J J J H 1 ",
"' R J 4 l u.q.;.9 o . . T U I V o.Y J I ~.P L L A A S o.I J J V &.J J J I Z , r r H J D ' I H S o.I J I J I J J J I I J I J J < ",
"' R I 4 -.7.;.9 o . . j / I I V X.Y I ~.P Z V V V V Z A o.I J V &.J J J J , r c J F I I ] J I Z o.J Y X.H I J I J I ' { V J H < ",
"' T J 4 -.6.q . . o k 6.+.Y I J &.Y ~.P V V c.A.Z.b.5 V S o.J J &.J J K J ; t r r J Y X.] J I Y o.J 2 H C J J J J D 2 A Z J J V ",
"I Y J 4 -.q + . + k 6.6.@.Y J Z [ U '.L V c.D.J.J.G.v.6 V ].I Z { I J J J J R J Y *.X.{ I I H Z ] J , t J J J J I C ; 4 I J J > ",
"T T J 4 0 + . . g 3.6.;.+.Y J J X.Y '.L V N.G.Y.#X}.D.Z V h.I H X.J I J I J T X.X.{ R Y J I I I X.J D C J J I J I J D D I I J V ",
"Y T J 4 & . . p 3.6.;.8 X.Y I A [ U j.Z V Z.J.@X.XP.G.V V ].J D X.J J J J J I W R Y J J J J I S ] I J I J J J J I I I J J J H 1 ",
"T T J 4 & . p 3.a.7.s + ] Y I H X.Y ).J V b.G.|.U.G.V.V V [.I H o.J J I J 4 Z J J J J J J I J I o.J J J J J J J J I J J I I J 5 ",
"U T J 4 & g 3.i.w.a + . { Y I Z [ Y j.H V M b.G.G.V.m V V [.J V } J J J t y J R J J I J I J I H { J J J J J J J J J J I J J J 1 ",
"S T J 4 g 3.w.w.p + . . ' Y I V ] U T { A V M N N m V V !.( J V [ J I J 5 H | ] I J J J J J I C ] J J J I J I J J I J I J I H 1 ",
"S Y J 4 -.6.7.a + . . g ! I J Z ] I K T ] A V V V V V !.( I I V [ J J J H ] { Y J J J I I K J C ] J Y { D I J I J I T ] Z J J > ",
"U Y J 4 -.6.p + . . p 3.! I J 4 R I I K ' { W.!.!.!.!.( J I I , [ J I J J Y Y J I J J J J J D C ] J 5 I D J J I I D V H V I H - ",
"S Y J 4 2.p @ . . g 3.6.! Y J 6 ] I J J I R ( / ( ( ( I I H I 5 ] J I J J I J I I J J J J J J V ] J ; 2 J J J J I C , 4 I J H > ",
"S T J 4 % + . . p 3.w.q./ U I 4 W Y J I J J I I I I I I I I I , ] J J J J I I J J I I J J I D t ] J D D J J J J I J D D I I C - ",
"U Y I 4 + . . 8 ;.a.w.a } Y I V R I I J J W.~.~.O.X.X.I I J I 5  .I I J I J J J I J J J I J J V ] J J J J I J J J J I J J I J > ",
"S T I 4 & . p <.w.w.a + ' Y J 2 W I I J W./ ` / Y I I X.I J J , ] I J J J J I J J J I J I J H C ] J J I J J I J I J J J I I D - ",
"H Y J 4 o 8 <.a.i.g o . { Y I , W L J W./ Z V V V Z Z S X.J J ; ] I J J I J I J J J I I J J C V W T Y C J J J J J I J J I J C = ",
"I Y J 4 8 :.w.q.g o o o ] Y I 2 R Y W./ Z V s.n.n.c.V V U | J ; ] I J I J J J K J I J J I J C y W C Y Y J Y I J I J J I J I C = ",
"I Y J 4 -.6.i.l # o . 9  .Y I 2 W U '.L V t.C.G.J.D.p.V 6 ).J ; { I I J I J J J J J J J J I C y [ Y Y [ C Y Y C I Y T ' V I C ; ",
"S Y J t -.,.h @ . . 9 =.@.Y J 2 W U '.L Z m.G.Y.OXI.D.V Z (.J ; ] Y J J J J I J J I J I J J J C [ C C T V J Y I J C C Y V Y C - ",
"I U I 4 z u @ . . 9 =.6.@.Y J 2 T Y /.H V Z.J.OXOXU.J.5 V ).I , ] I I J J J J K J J J J I Y C ; ] C ; V C I J I Y C 2 V I I C = ",
"S T I V 0 @ . . q =.i.7.@.Y J , W K /.H V m.G. XR.J.S.V V [.J , ] K J J J I I I I J I J I Y C C [ I C C I I I I I C C C Y I C = ",
"I Y I 6 & . . 8 <.i.i.j ..T J 2 W I h.H 6 e.M.J.J.S.r.5 V [.J ; ] Y I J J J J J J J Y C I I C C [ Y Y J I Y Y J I I J J I I C ; ",
"H Y J 6 & o q <.6.i.k O X.T J , T U ] [ Z 6 N y.y.r.V Z W._ J ; ] I J J I J I J I I Y I J J C C ] C I I I C J I J I J I J Y C - ",
"I Y J t & q 0.i.6.j @ . X.Y I , W U J ] ] Z V V V V V W._ Y J ; ] J J J J J I I J I J J C Y C ; ] J I I J I J I J Y J I J I C = ",
"Z I J V x 0.i.6.f @ . . X.Y I 4 K K J J ] ] #.Q.E.g.E._ I I I ; ] I J I J I J J J J I J I I Y C T I J I J J J J J J J I J J C = ",
"A I I 6 -.i.6.f @ . o q O.Y I , T J J I J ] #.#.#.#.#.J I J J ; W I J K I J J I I J J J I I C ; T J Y ] C Y J J J Y T ' C J J = ",
"Z Y I V 2.6.f O o o q 1.@.T K , Y J J J J I J I I J J J J I J ; Y J J J K J J J J J I J Y T C C T J C T V I I J J C C Y V Y C = ",
"A Y L Z z h @ . o q 3.6.@.Y I , Y I J J J Q.W.W.| { { J J I J ; W J J J J I J J J J J J J Y C C Y C 2 V C Y I J Y C ; V I J C - ",
"Z Y I Z 0 @ . . q 1.6.>.+.Y I y I I J J f.@._ _ R T R { J J J ; Y J I J J J I J J I I J J J C ; Y J C C J J I I I J C C Y J C = ",
"Z Y J Z & . . i 3.6.,.h ..Y I , Y I J Q._ Z V V Z 5 V T { I I ; ] J J J J J J J J J J J J J C y R J I J I I Y C I J J I I I C ; ",
"Z U U Z & . i 5.6.>.8 @ X.Y I , Y I Q._ H V t.k.l.p.V Z T { J ; Y I I J K J I J J I J I J J J y Y J I J I I I I J I J J I Y V - ",
"6 J J Z & 0 9.6.>.d @ o | Y U 2 J J `.K 6 e.M.G.J.S.r.V V (.S ; I J I J J I J I J J J J J J C 2 I J I J I I I J I J J J J J C = ",
"V I I Z n 8.k.1.d @ . . X.Y J 2 D I `.K Z b.G.K. XP.S.V V ).U ; J J J J J J J J I I J I J J J 2 J J J J J J J J I J J J J I C = ",
"6 J J Z 8.k.3.d @ . . 0 O.Y J 2 J J /.G V Z.J..X+XI.G.V Z (.J ; J J I J J I J J I J J J J I C t J J Y ] J J J I J Y Y R J I C ; ",
"6 I J Z 8.6.d O . o 0 <.@.Y J 2 D J /.H V m.G.OXR.J.S.V 6 [.J ; J I K J J J K J I I J I J J J 2 J J C W C J J J J C J R V Y C = ",
"6 I I Z z z @ . o q 5.6.@.Y I 2 J J /.J V t.C.G.J.D.p.V V [.J , J J J I J J J J J I J J J J J 2 J C ; V C J J J Y C , V H J C = ",
"6 I J Z x $ . . w 1.6.>.@.Y I 2 H J ] ] Z V t.k.l.p.V V _ W.J ; I J J J I J I J I J J I J J D 2 Y Y C C J J I J I C C C I J C = ",
"6 J J Z > . . % <.6.>.d O.Y J , H J I { R Z V V Z V V ) W.J J ; J I J I J J I J I J J J J J D 2 J J J J J J J J I J J J J I J = ",
"6 I I A V 3 Z B f.f.N G oXT I 2 H J J I ] ' ) _ ) _ _ W.J J J ; J J J J I J J J J J J I J J J , J J J J J I I J I J I J J Y C = ",
"V J J J T ' ] ' ' { { { *.T J , H H J I I ] Q.W.f.W.W.J J J J ; I C J I J J J J J J J J J J J 2 J J U J J J J J J J J J J J C = ",
"3 D H J J J J J J H I I J J I , Z A J Y J J J J R J J J J J J ; J C I I J I J J C J J I J I D 2 S C J J J J J J C J J J J J C = ",
"3 J J ' J H J I J I I R J J J 2 C I F K $.K J J Y I J $.P J C y C J J ] C J J J J J J ' H I J 2 A J Y ] J J J J Y J Y ' J I J = ",
"5 H D T J H I H J H C R V J J 2 C J y ^ ^.E J H I I C ^.f.J C ; J Y C ] V J J J J J C ' V I D 2 H J C ' V J J H J J J Y V I C = ",
"3 H 4 2 V I J J I J 4 2 D I I , C I 2 v Q I I C C I ; L ` I F ; C Y ; 2 S J J H J J ; 4 C I J , V J ; V C I J H T C 2 V H I C = ",
"V I C C D J J J J J C C J J J , H I C y r J I J Y U C C I F F y Y C V V J J J J J J C C Y Y C , Y J t V J J J J I C C C J J C = ",
"> C V V V V C V C C D D D D D , 5 C V , y 4 C V C C C C C C C ; V C V V V V C V C J C J C C C ; V C V V V V C V C C C C J C C = ",
"X * . X X X * . * = = = = = = =   *   X X X =   = = = ; = = = = X = X X X X * . = = = = = = = * X * X X X . * . - ; = = = = = * "
};
