/* XPM */
static char *b690b9311b2a42c3c277f9fac0a76f95g1JC12x5UUDGZN01[] = {
/* columns rows colors chars-per-pixel */
"64 64 184 2 ",
"   c #181716",
".  c #1C1C1B",
"X  c gray8",
"o  c #201F1B",
"O  c #2D2617",
"+  c #25221B",
"@  c #2B261A",
"#  c #31291B",
"$  c #3A2F19",
"%  c #3F321F",
"&  c #252222",
"*  c #2A2225",
"=  c #2E2528",
"-  c #2E292A",
";  c #312920",
":  c #382B2F",
">  c #33282A",
",  c #3B332D",
"<  c #2E2F30",
"1  c #382E31",
"2  c #2E3233",
"3  c #333435",
"4  c #3A3135",
"5  c #323738",
"6  c #3C3538",
"7  c #353A3B",
"8  c #3A3B3D",
"9  c #523C0E",
"0  c #463511",
"q  c #4C3B17",
"w  c #44371A",
"e  c #4C3C1A",
"r  c #44391D",
"t  c #763D07",
"y  c #423229",
"u  c #5B3F21",
"i  c #523F28",
"p  c #573F25",
"a  c #463D34",
"s  c #493D37",
"d  c #433C39",
"f  c #463A36",
"g  c #3D413C",
"h  c #5D440E",
"j  c #514019",
"k  c #5C4718",
"l  c #5E481A",
"z  c #594114",
"x  c #6A4C0C",
"c  c #7D4B05",
"v  c #784B09",
"b  c #794508",
"n  c #7A5207",
"m  c #7A5509",
"M  c #6B4F16",
"N  c #63411A",
"B  c #644D1C",
"V  c #674813",
"C  c #784C11",
"Z  c #6D5115",
"A  c #6D531B",
"S  c #775817",
"D  c #72541B",
"F  c #785716",
"G  c #4E442E",
"H  c #4C4124",
"J  c #5A4A24",
"K  c #574625",
"L  c #434237",
"P  c #494532",
"I  c #4A423D",
"U  c #584C3B",
"Y  c #5D523D",
"T  c #6B603B",
"R  c #7A6B39",
"E  c #383F40",
"W  c #403E41",
"Q  c #3C4344",
"!  c #3E4648",
"~  c #3F484A",
"^  c #424346",
"/  c #484644",
"(  c #494B45",
")  c #414749",
"_  c #464C4E",
"`  c #4A4F4D",
"'  c #4B5048",
"]  c #595C4E",
"[  c #464E51",
"{  c #455153",
"}  c #495254",
"|  c #4B5659",
" . c #4D5A5C",
".. c #565B55",
"X. c #505C5F",
"o. c #645940",
"O. c #5D6151",
"+. c #5C635A",
"@. c #63604A",
"#. c #796F47",
"$. c #716744",
"%. c #666955",
"&. c #676B5B",
"*. c #6A6F59",
"=. c #71735A",
"-. c #4E5D60",
";. c #515F62",
":. c #536265",
">. c #55666A",
",. c #57696C",
"<. c #5A6B6E",
"1. c #5B6864",
"2. c #5E706E",
"3. c #5A6D71",
"4. c #5D7276",
"5. c #61726F",
"6. c #69766D",
"7. c #6B786F",
"8. c #787B61",
"9. c #727762",
"0. c #677975",
"q. c #62797E",
"w. c #677776",
"e. c #814200",
"r. c #834C01",
"t. c #835400",
"y. c #855A00",
"u. c #8A5D04",
"i. c #825C0C",
"p. c #8B5B0B",
"a. c #88540A",
"s. c #925F0C",
"d. c #825E1C",
"f. c #87610F",
"g. c #8D630A",
"h. c #8C6106",
"j. c #92660A",
"k. c #95690D",
"l. c #986C0F",
"z. c #8D6614",
"x. c #8F6816",
"c. c #82621F",
"v. c #8F6A1A",
"b. c #956C15",
"n. c #9A6F15",
"m. c #906B1B",
"M. c #9E7215",
"N. c #9F761C",
"B. c #826421",
"V. c #8A6B26",
"C. c #8F702B",
"Z. c #937024",
"A. c #9F7925",
"S. c #9F7B2B",
"D. c #947329",
"F. c #83733F",
"G. c #997A34",
"H. c #A07D2F",
"J. c #A07E31",
"K. c #857642",
"L. c #7F8164",
"P. c #748276",
"I. c #7E8976",
"U. c #7B8B7D",
"Y. c #9C803E",
"T. c #A08648",
"R. c #828461",
"E. c #8A8B68",
"W. c #818568",
"Q. c #959569",
"!. c #9A9A6F",
"~. c #9C9562",
"^. c #899175",
"/. c #88947C",
"(. c #9D9E72",
"). c #949B7A",
"_. c #9EA074",
"`. c #A7A36F",
"'. c #A7A672",
"]. c #A9A874",
"[. c #ADAE7B",
"{. c #A1A57B",
"}. c #BAB77A",
"|. c #6A7E82",
/* pixels */
"8 [ _ _ _ _ Q ) Q _ Q ) Q E E 1 _ _ _ _ _ _ E ) E _ E _ E E E : _ _ _ _ ` _ E _ E ) E _ E E E : _ _ _ _ { W E { E [ W W E E E > ",
"8 Q 8 Q E E E E E E E E E E E 1 ) Q E E E E E E E E E E E E E : _ E E E E E E E E E E E E E E 4 _ E E E E E E E E E E E E E E = ",
"8 Q 3 :. .Q E E E E 4 :.} Q E 1 ) E 4.) E 4.|.|.|.} E E E q.E : _ E q.E E E E E E E E E W 4.E 4 W E W 3.[ E E E E E W 4.W E E * ",
"8 Q 4 ^ [ Q E E E E 3 ^ _ Q E 1 ) 1 E E 4.d > : > : : E : E E : _ 1 E E E E E E E E E E 4 E E 1 [ E y _ W E E E E E E W W E E = ",
"g Q 3 : 7 8 E E E E 3 : 8 E E 1 ) Q E 4.8 : : : : : : : ` E E : _ E E E E E E E E E E E E E E 4 [ E : 4 E E E E E E : : E E E > ",
"E Q E 8 E E E 8 E E E g E E E 1 ) Q 3.d 1 : t t.y.t : : : _ E : _ E E E E E E E E E E E E E E 4 W E E E E E E E E E E E E E E = ",
"E Q E - > 1 : : 7 4 7 8 ) Q E 1 ) Q 3.6 : t t.y.y.u.e.: : q.E : _ E E E E E E E E E E E E E E 1 [ E E E E E E E E E E E E E E = ",
"8 Q E 3 & o A v.m.m % &  .Q E 1 ) Q 4.d : v u.G.K.j.t.: : q.E : _ E E E E E E E E E E E E E E 4 [ E E E E E E E E E E E E E E = ",
"E Q E 4 & M G.A.j.0 o . | Q Q 1 ) Q 3.6 1 n y.G.T.p.y.1 < |.E : _ E E E E E E E E E E E E E E 4 _ E E E E E E E E E E E E E E * ",
"| | ) 6 D S.H.j.0 o . . | { _ 8 3.} {.( 8 m l.N.N.n.y.8 7 [.) 8 q.) ) [ _ _ _ _ _ ) _ _ _ _ ) E 3.[ ) [ W _ _ _ W W [ W [ [ E : ",
"Q ! E 4 d.N.j.0 o . . Z +.Q Q 4 [ Q 0.6 1 y b u.u.r.y 1 1 }.Q 4 } E E Q E E E E E E E E E E E 4 { E ~ 3.[ E E E E E | 3.[ E E > ",
"| | _ 4 d.M.q o . + A n.6.{ _ 8 3.} } 3.Q 8 d L L L 8 E `...) E q.[ ) [ _ _ _ _ [ ) _ [ _ _ _ W 3.) 4 ~ W [ _ _ } W E E E [ W 2 ",
"-.-.[ 6 d.e + . o D n.M.7.} _ 6 3.} [ } 3.! E E 8 g E '..._ _ : q._ _ _ _ _ _ _ _ [ _ _ [ _ ) E |.W 1 6 _ _ _ _ } W : E [ [ W > ",
"-.| _ 6 ; o . . Z n.M.j.6.} [ g 4.} [ [ } 3.(.0._.'.'...[ _ [ 7 q._ _ _ [ _ [ ` _ _ _ [ _ _ [ W 3._ _ ) [ _ _ _ [ } W W [ [ ) 2 ",
"|  .[ 6 o . . Z n.M.j.0 3.} [ 3 3.} [ _ [ } ..} ......[ [ _ [ : q._ _ _ _ _ _ _ _ _ _ _ [ [ _ W 4.[ _ _ _ _ [ _ [ [ [ [ [ [ W < ",
"-. ._ 6 & . A n.M.j.0 o ;.[ _ E 4.} _ _ _ [ [ _ [ _ _ [ _ [ [ 7 q._ _ _ _ [ _ E 4 4 6 _ _ _ _ W 4._ _ _ [ _ _ _ _ [ [ [ [ } W 2 ",
"-.| _ 6 & A G.N.g.0 + . | { _ Q 3.} [ [ [ !.'.'.0.4.4.{ _ [ _ g |._ _ _ _ [ E f s d E E _ _ _ ! |._ _ _ _ [ _ [ _ _ _ _ _ _ ) 3 ",
"-.-.[ 6 D G.S.g.0 o . . | } [ Q 4.| ) [ (.] ' ' ! ! ~ 4._ _ _ Q |.[ _ [ [ E : s W _ _ E -._ _ ! 3._ _ _ _ [ _ _ _ [ _ } _ _ _ 3 ",
"-. .[ 6 d.N.j.0 . . . Z +.' [ Q 4.} [ !.] Q E E 8 g E ! 4.{ _ 8 4._ _ _ _ 1 s s ` s _ [ -._ _ ! |.} } 3.W } _ _ _ } -.;.E _ ) 2 ",
"-.| [ 6 d.M.q . . + A n.6.} [ ) 4.} (.] Q 8 u n m v 8 g ~ 4._ _ |._ _ [ _ : W s W ` } 4.;._ [ | 3.W E E W [ _ [ _ W E W E _ _ E ",
"[ } _ 6 d.e + . + Z M.M.7.| _ Q ;.} ].' 8 u t.y.y.y.b a Q [.[ Q ;._ _ [ _ _ -.) } w.4.;.} _ _ W ;.) 4 E _ _ _ _ } W : 6 } _ _ 2 ",
"| | _ 6 w + . . B b.M.j.6.} _ _ <.} ].' Q M y.Z.G.g.t.P 8 U._ ) 4._ _ _ _ _ | 3.5.;.-.| _ [ _ [ 3._ W W _ _ _ _ [ _ W ) [ _ ) E ",
"{ | _ 6 + . . l l.M.j.9 <.| _ Q :.} P.) 8 Z y.G.T.z.y.P Q _._ Q ,._ [ _ _ _ _ -. .} _ _ _ _ _ ) >._ _ _ _ _ _ _ [ _ [ _ _ _ _ 3 ",
"| | _ 6 & . l b.Y.N.z +  .} { ) 3.} ).' 8 Z j.N.A.b.h.L Q }.[ ) 4.[ _ _ _ d W _ _ _ _ _ _ _ _ _ 3.[ _ [ _ _ _ _ [ _ _ _ [ _ ) E ",
"{ | [ 6 & l b.H.H.l + . >.} _ Q :.} P.) Q P C u.h.a.J g Q }._ Q ,.[ _ _ 6 f _  .[ _ ` [ _ _ _ ) ;._ _ _ _ _ _ _ _ _ _ _ _ _ _ 3 ",
"~ | [ 6 A b.G.H.k @ . . X.{ _ Q -.}  .>.Q Q a G G G g 8 Q.&._ 8 ;._ [ _ E ) <.;._ _ _ _ [ _ _ E ;.[ _ _ _ _ ` [ [ _ _ _ [ _ _ 2 ",
"_ } _ 6 B.M.N.k @ . . k +.[ _ Q  .[ _  .>.Q E E E E E Q.&._ [ 8 ;._ _ _ _ ;.;.| [ _ [ _ _ [ _ W ;.} } >.) _ _ _ _ _ | ;.! _ ~ 2 ",
"~ } _ 6 S M.k @ . . N b.+.{ _ 6 X.} _ _  .>.E.Q.Q.Q.Q.&.[ _ _ 4 >.} _ _ _ } } _ _ _ _ _ _ _ _ W ;._ E [ W _ _ [ _ ) W _ E [ ) = ",
"~ | _ 6 S l @ . . l b.M.+.{ _ 8  .} _ ' [  .&.&.&.&.&._ _ _ _ 8 ;._ _ _ _ _ _ _ [ _ _ _ _ _ ) E ;._ : 4 _ _ _ _ [ W 1 6 _ _ ) < ",
"~ | _ 6 , @ . . l b.S.A.+.} { 6  .} _ _ [ [ _ _ _ [ [ _ _ [ _ 3 ;.[ _ [ _ _ _ _ _ _ ` _ [ _ ) W ;._ ) W _ _ _ _ [ _ W ) [ _ ) - ",
"~ | _ 6 + . . 9 z.S.S.k 1.} _ 8 X.} _ _ _ E.!.!.5.3.3._ _ _ _ 6 ,._ _ _ _ [ _ _ [ _ [ _ _ _ ) W ;._ [ [ _ [ _ _ [ [ [ _ [ [ ) < ",
"{ | _ 6 + . N z.S.S.k @ ;.} _ 6  .} _ _ E.%.O.O.} { { <._ [ [ 4 ;._ [ _ _ _ _ _ _ _ _ _ [ _ ) W ;.[ _ _ _ [ _ [ _ [ _ _ _ { W > ",
"_ } _ 6 + 9 j.Y.S.l @ . ,.} _ 4  .' [ E.%.Q g 8 E E 8 { 3._ _ : ;.} _ _ } _ _ _ [ _ _ _ _ [ W W ;._ [ _ [ [ _ _ _ _ _ _ [ [ W = ",
"_ } _ 6 z g.S.S.B * . . ;.} _ 4 -.} E.%.g Q N Z M V g Q [ 3._ : ;.} [ _ _ _ _ _ _ _ _ [ _ _ W W ;._ [ _ [ [ _ [ _ [ [ [ _ _ W = ",
"~ | [ 6 F M.A.A # . . 0 1.[ [ 1  .} ].' Q p v y.y.r.u 8 E )._ 1 ;.} _ _ _ _ _ ` [ _ [ _ _ _ W : ;.} [ ;.W } _ [ _ } | ;.W } W > ",
"~ | _ 6 d.j.V O . . 0 i.7.} _ 4  .} ].' 7 v y.Z.D.u.r.E E /._ : ;.} _ _ _ _ _ _ _ _ _ _ [ _ _ W ;.W W | W _ _ _ _ W W } ~ { W > ",
"~ } { 6 F h + . . 0 i.n.7.} [ 4  .[ I.) 7 m y.Y.T.h.y.E E ).[ : ;._ _ _ [ [ _ _ } [ [ [ [ [ W : ;._ : W W [ [ _ } W : E ) [ W = ",
"~ | { 8 r @ . . e z.A.N.7.} [ 1 X.} ^.( Q m j.A.S.b.y.E E }.[ : ;.[ _ [ _ _ } _ } W _ _ W [ [ f ;.[ W W [ _ _ _ [ ) W W { [ W = ",
") } _ 8 & . . j x.S.H.A 5.} [ 4  .{ I._ Q K a.g.j.a.J Q E }._ : ,._ _ _ _ _ _ _ [ [ W [ } } W W ;.[ _ [ _ _ _ _ _ [ _ [ [ [ ) > ",
"[ | ` 8 & . j x.M.A.A @ 3.} [ 4 X.}  .;.Q E i J J H Q 8 R.8._ : ;._ _ [ ` _ _ _ [ } } [ [ [ W W ;.[ _ _ _ [ _ [ _ _ _ [ _ { W = ",
"_ | _ 8 & e D.N.M.M O . 3.} [ 1  .} [ ;.;.Q E E E E E R.8._ _ : ,._ _ _ _ _ [ _ [ [ _ _ } } W : ;._ _ _ _ _ _ _ _ [ [ _ _ _ W = ",
"Q [ [ E J C.H.N.A O . . 3.} [ 1 } ` _ _ ;.-.8.R.R.R.R.8.[ _ _ : | _ [ ` _ [ _ _ _ _ [ _ W [ [ W | _ _ { [ _ [ [ _ _ _ [ _ [ W = ",
"Q } _ 8 c.A.N.M O . o e 5.} [ 4 } [ [ _ _ ;.9.8.8.8.8._ _ [ _ : ;._ _ _ _ _ _ [ } _ _ _ [ [ W : -._ } ;.W } _ _ [ } | ;.) [ W : ",
"Q } _ 8 c.M.M O . o e x.7.| [ 1 [ ` _ [ _ [ _ [ _ [ _ _ _ _ _ 1 | _ [ _ _ [ _ _ _ _ [ _ } | W W | ) W | W [ _ [ _ W W } E { W > ",
"Q } _ Q S V @ . o e b.M.7.} [ 4 } [ _ _ _ R.E.E.<.>.>.[ _ _ _ :  ._ _ _ _ _ _ _ _ _ _ _ _ [ W W | W 1 E W } [ _ [ W 1 E _ _ W = ",
"Q { [ Q r @ . . e x.M.k.7.} [ 4 [ [ [ [ R.=.=.*. .| | ,.[ _ _ : | _ _ _ [ ` [ _ _ _ _ _ _ _ W : | _ W W _ [ [ _ _ _ W W [ [ W = ",
"! { [ Q & . . j x.M.k.h 5.} [ 1 } [ { R.=.^ E E E E E | >._ _ 1  ._ _ _ _ _ _ _ _ W } _ _ _ W f  ._ _ _ _ _ _ [ _ [ _ _ [ [ ) > ",
"Q } { ! & . j x.M.k.h # 3.} [ 1 } [ L.=.^ E u B B k E Q | >.[ : | _ _ _ _ [ [ _ _ } } _ } _ _ f | _ _ _ [ _ _ _ _ _ [ _ [ { W = ",
"8 _ [ Q & j R M.l.x O o 3.| [ , ) [ ].' E p r.a.y.r.K E 8 /._ : _ _ _ _ _ _ _ [ _ _ _ _ [ [ W 1 _ _ _ _ _ [ _ _ _ _ _ _ _ [ W > ",
"8 _ _ Q H m.Y.l.x O . . 3.{ _ 3 ) _ ].' E v y.n.m.u.r.E Q )._ : [ _ [ [ _ [ _ _ [ _ [ [ _ [ _ 1 _ _ _ _ _ [ _ [ _ [ _ _ _ _ W = ",
"8 _ [ Q V.Y.b.x O . . w 5.} _ 4 ) ` ^.` E m y.K.T.p.y.E E /._ : _ } _ _ [ _ _ _ _ _ _ _ [ _ W W _ _ } ;.) [ _ _ _ _ } -.) [ W : ",
"g [ _ Q S M.x O   + 0 z.7.} _ 4 ) _ I.) E m j.S.J.z.y.E E }._ : _ _ _ [ _ _ [ _ [ _ _ [ _ _ _ 4 _ _ W -.W [ _ [ _ _ W -.E } W = ",
"8 [ _ Q S S # . o w x.M.7.} { 4 / _ ^.) E J p.j.k.s.B Q 7 }._ 1 _ _ _ _ _ _ _ _ _ } _ _ _ _ _ 4 _ _ y E W W _ _ } W : E _ [ W = ",
"8 _ _ Q J ; . . e x.M.l.7.} ` 4 _ _ >.-.Q E u B B N E g *.E.[ : _ _ W } [ _ [ _ _ _ _ _ _ [ W 4 _ _ W W [ } _ [ [ W W W [ _ W = ",
"7 _ _ Q - . . % z.M.l.x 5.} _ 1 ^ _ _ >.;.E E E g 8 Q *.E._ _ : _ _ } } [ _ [ _ [ [ _ _ _ _ W 1 _ _ _ _ [ _ _ _ [ [ [ _ [ { W > ",
"Q _ _ ~ g 7 Q T K.K.R ( |.| [ 4 _ _ _ _ ;.-.*.=.=.=.*.E._ [ _ : _ _ _ _ _ _ _ _ _ ` _ _ [ [ _ 1 _ _ _ _ [ [ [ _ _ _ _ [ [ { W > ",
"E ) _ _ | -.;.-.-.:.>.>.w.| _ 1 ) ) [ [ [ ;.W.E.K.^.K._ _ _ _ : ` W [ _ _ _ _ _ ) [ _ [ _ _ ) f { ) _ _ _ _ [ [ ) [ _ _ _ _ W > ",
"7 ^ _ _ _ [ [ _ ! [ _ _ [ _ _ 4 W ! [ [ _ _ _ _  .}  ._ _ _ } : [ W [ [ _ [ _ _ ) _ _ _ [ _ ) 4 ) W [ _ _ [ _ ) W _ _ _ _ [ W = ",
"3 _ [ -._ _ [ _ [ [ [ -.) _ _ 4 W [ ^ ] 9.` _ _ { { _ 8.] _ / 1 W [ [ ;.W _ _ [ _ _ _ -.) _ ) 4 E } | ;.W { [ [ } _ } -.) } W > ",
"5 _ W | ) ) [ ) ) [ W | ^ _ _ 4 E [ f $.~..._ ) } W W !.K._ W 1 _ [ W ;.E [ } W _ _ W -.E } _ : ) _ W ;.E [ [ ) [ _ W -.E { W - ",
"5 ) 6 4 W [ [ ) _ [ 6 6 ! _ _ 4 W [ 1 U o._ [ W { } E W @._ / 1 W _ : 4 ~ _ _ ) _ ) 1 6 W _ _ 1 ) ) 1 E W [ [ W } W E E ) _ W = ",
"E [ W E W _ [ _ _ [ E W ) _ _ 4 ) [ W f s _ _ _ { W W W _ / W y _ ) W E { _ _ _ { [ W W } } W 4 _ _ E W _ _ [ [ [ W W W } [ W = ",
"< W E E E E E E W W W W ) W ^ 1 8 W E 1 f 6 W W W W W W W W W 1 E W E E E E W E W ) W W W ) W : E W E 6 E E W E W W W W W W W > ",
"X * o X X X * . * > > * > = = >   *   X X X =   = = > : = = > = X > X X X X =   = = > = = > = *   * X X X . * . = : = - - = = * "
};
