/* XPM */
static char *d369fdee600246a4dc59af709960eabbWQWGzkOyjjHOzIYg[] = {
/* columns rows colors chars-per-pixel */
"64 64 256 2 ",
"   c #1C110A",
".  c #191515",
"X  c #2D100D",
"o  c #3B1C02",
"O  c #371608",
"+  c #3B1D0B",
"@  c #281B16",
"#  c #351D19",
"$  c #3D2105",
"%  c #37210B",
"&  c #3D220C",
"*  c #2A271B",
"=  c #2C221D",
"-  c #382719",
";  c #342B1C",
":  c #3B311D",
">  c #381B23",
",  c #251F32",
"<  c #2A2624",
"1  c #23242C",
"2  c #2C2D2B",
"3  c #332522",
"4  c #382826",
"5  c #3C2B2C",
"6  c #2F312D",
"7  c #3A3329",
"8  c #262335",
"9  c #2C2235",
"0  c #392A33",
"q  c #2C3536",
"w  c #393735",
"e  c #323A3B",
"r  c #471907",
"t  c #581708",
"y  c #491913",
"u  c #67160B",
"i  c #452303",
"p  c #492300",
"a  c #4A2707",
"s  c #43250C",
"d  c #46290B",
"f  c #4B2B0C",
"g  c #5A2409",
"h  c #532E0B",
"j  c #58320D",
"k  c #452A14",
"l  c #4A2C13",
"z  c #462718",
"x  c #4B2B1A",
"c  c #552A19",
"v  c #473419",
"b  c #4D331C",
"n  c #53341D",
"m  c #593619",
"M  c #702E0B",
"N  c #68380C",
"B  c #662C19",
"V  c #772C1C",
"C  c #663818",
"Z  c #77381B",
"A  c #4D1D24",
"S  c #761C25",
"D  c #472826",
"F  c #562924",
"G  c #473825",
"H  c #4E312A",
"J  c #543522",
"K  c #553A23",
"L  c #5C3C23",
"P  c #573728",
"I  c #492A35",
"U  c #562E35",
"Y  c #423433",
"T  c #493837",
"R  c #563A37",
"E  c #7A2827",
"W  c #633B24",
"Q  c #6A3826",
"!  c #6F332C",
"~  c #633C2B",
"^  c #723425",
"/  c #7B3626",
"(  c #733B25",
")  c #733B2A",
"_  c #7B3C2C",
"`  c #7A2832",
"'  c #643736",
"]  c #3D433A",
"[  c #5B4C16",
"{  c #5F5219",
"}  c #78410E",
"|  c #68441D",
" . c #794516",
".. c #67581D",
"X. c #6D6614",
"o. c #766A16",
"O. c #4A422B",
"+. c #59422B",
"@. c #4A4935",
"#. c #564936",
"$. c #585338",
"%. c #644324",
"&. c #6A4629",
"*. c #774727",
"=. c #744D2B",
"-. c #7C4A2B",
";. c #6D5727",
":. c #775428",
">. c #7C532C",
",. c #674935",
"<. c #6B4B33",
"1. c #774834",
"2. c #67563C",
"3. c #775735",
"4. c #7C5534",
"5. c #74533C",
"6. c #7B563C",
"7. c #7B593D",
"8. c #786829",
"9. c #7B6835",
"0. c #2C2843",
"q. c #322D48",
"w. c #383748",
"e. c #353850",
"r. c #413B53",
"t. c #653A47",
"y. c #3C4448",
"u. c #314A5B",
"i. c #355669",
"p. c #434749",
"a. c #564643",
"s. c #54554D",
"d. c #484957",
"f. c #6A5942",
"g. c #7C5A42",
"h. c #795945",
"j. c #6F5053",
"k. c #696547",
"l. c #7B644A",
"z. c #756F54",
"x. c #455766",
"c. c #5F5F6C",
"v. c #716966",
"b. c #8F161B",
"n. c #B01C17",
"m. c #8B2D0F",
"M. c #842C16",
"N. c #853919",
"B. c #AC2218",
"V. c #B2231D",
"C. c #911A26",
"Z. c #8B2629",
"A. c #873926",
"S. c #8A3C2B",
"D. c #963C28",
"F. c #893935",
"G. c #923D32",
"H. c #9B3E34",
"J. c #A72A28",
"K. c #BA272A",
"L. c #A6352A",
"P. c #B72B33",
"I. c #AE3533",
"U. c #C71C22",
"Y. c #C32A35",
"T. c #884A16",
"R. c #914D17",
"E. c #9A5416",
"W. c #8A681C",
"Q. c #83741B",
"!. c #894729",
"~. c #834C2C",
"^. c #994629",
"/. c #875727",
"(. c #83552C",
"). c #8A542D",
"_. c #855A2C",
"`. c #99572C",
"'. c #884A35",
"]. c #954637",
"[. c #835433",
"{. c #8B5433",
"}. c #875A37",
"|. c #945936",
" X c #A44728",
".X c #B64F2E",
"XX c #A8562D",
"oX c #A54835",
"OX c #B44A3C",
"+X c #A85833",
"@X c #B75937",
"#X c #88662C",
"$X c #96672C",
"%X c #8B792E",
"&X c #8C6435",
"*X c #8B623D",
"=X c #976638",
"-X c #A76539",
";X c #B66637",
":X c #C15D3D",
">X c #C1693E",
",X c #835E43",
"<X c #885C45",
"1X c #975847",
"2X c #91544B",
"3X c #B44E41",
"4X c #A65849",
"5X c #B35847",
"6X c #836145",
"7X c #8B6344",
"8X c #866A46",
"9X c #83624B",
"0X c #8C654A",
"qX c #8E6A4C",
"wX c #976745",
"eX c #936A4B",
"rX c #9B6C4A",
"tX c #997349",
"yX c #836551",
"uX c #836A51",
"iX c #8D6A52",
"pX c #956D52",
"aX c #877550",
"sX c #947757",
"dX c #9D7354",
"fX c #A66948",
"gX c #B16E4C",
"hX c #A67548",
"jX c #B36A54",
"kX c #A27554",
"lX c #A47958",
"zX c #B77657",
"xX c #905E66",
"cX c #A6706E",
"vX c #C25C40",
"bX c #CC744D",
"nX c #D27559",
"mX c #978627",
"MX c #948234",
"NX c #A79132",
"BX c #B28653",
"VX c #98876A",
"CX c #978F6F",
"ZX c #A9896A",
"AX c #B58C68",
"SX c #A9916C",
"DX c #A79374",
"FX c #B29474",
"GX c #CC8659",
"HX c #C18C62",
"JX c #C5956C",
"KX c #C89B74",
"LX c #C1A37D",
"PX c #B1A582",
"IX c #C7AB87",
"UX c #CAB08E",
/* pixels */
"9XyXyXyXyXyXyX<XyX9X9Xl.6X<X,XyXl.6X6Xh.6Xh.h.9Xl.,Xl.yX9X9XyX,Xl.yXyXuXyXuXyXyXyXyXyX9X9X9X6Xl.yXyXyXyX9XyXl.yXyXl.l.l.yXyXyXyX",
"7X9Xg.g.h.g.,Xg.g.g.g.5.2.f.5.f.6.6.h.6.h.h.g.g.g.,Xh.h.g.g.h.h.h.h.6.g.g.g.g.g.7.g.g.g.7.g.g.7.g.6.g.,X6Xl.9X,Xg.g.g.g.h.h.6.<X",
"6.}.l r s s s s s s s & & + r + & & s k 2.f.f.#.~ ~ Q ~ W L F x s s r s s & s s d d s s s k s d d & l 3.6X*X9.7.l s s s s l 1.[.",
"[.}.c x l r X # l z + O o o o o o $ $ d l.VXcXz.Q {.}.*X&X(.*.l o o + o o O r [ [ v v : x k - b $ o i <.tXtXaX2.k o & $ o l }.[.",
"4.|.Z ^.M.u r u V B r X o o $ $ i $ $ l yXCXDXaX) ~.|.wX}.!.Z l $ $ i $ o O $ #X%XW.[ v b n n b s $ d L 3.3.3.%.D D - z x %.7X[.",
"}.wXM.].D.u r B / B r X $ s $ i $ $ $ d yXDXDXj.Q A.2X2X'./ Z c j } } a o o d 8.W.X.[ v n m +.K & $ $ b ;.&.%.K #.f.h.h.5.<.eX}.",
"6X=XM.oXN.u r t _ B r X k n n n n b k k l.VXDXaX( !.}.eX'./ ( c } T. .j * * 7 %X%XX.{ n n W %.H * = = b | | | n D n L W J %.wX*X",
"7XwXN.gXXXM t M {.( r O | =.-.8.>.| %.J l.DXDXsX_ S.1X1X|.A.V B  .T.} | : O.@.%XmXo...+.<.>.>.,.= 7 7 b =.*.:.m b n m W W =.tX7X",
"*XfXE.bX;XN.g !.-X`.C s =.#X=X-X=X#X/.%.sXLXLXZXS.`.4XjX|.^.D.B T.R.T.[ : #.@.MXNXQ.X._.=XfX-X[.3 Y 7 K :.>.>.m D J W =.*.4.rX7X",
"7XwXD.vX.XM t N.gX{.t y =.rXhXtXhX=X_.%.sXIXUXFX!.oX5XgX4X^.!.Z T.R.T.j : #.$.MXNXQ.8.*.F.F.|.1.3 Y Y L 3.&X*X<.H P (.=X=X7XrX7X",
"0XdX XbX.XM t N.gX!.t O &._.&X}.|._.-.%.sXPXUXFX~.+XzXAXgX-X|.C T.R.T.[ : @.s.MXNXQ...^ E Z.G._ 3 7 Y 9.BXBXlXl.#.h.2XiXdXpXdX0X",
"qXdXE.bX>XN.g !.gX$Xm s Z ~.)._./.-.*.L sXIXUXFX).oXgXzXfXoX^.C T.E.R.N : @.@.MXmXo...^ ` Z.G.1.3 Y w +.5.;.3.+.R xXxXxXyX,XdXiX",
"7XrX^.GX;Xm.g N.gX{.g y :.$X).).(.~.( m sXLXIXFX!.oX5XgX4XD.D.V T.E.E.[ - #.$.MXmXW...*.].H.].1.3 Y Y P ,.,.,.J D U ' t.' ~ rX0X",
"qXhXL.bX.Xm.t M.zXG.r r *.=XwXwXwX*X=.L sXKXUXAX'.oXfXjXfX^.N.C T.E.T.j v $.s.MXmXo...^ S.G.].1.5 T T K ,.,.,.G 4 I F ' '.1.dXqX",
"8XwX XnX:Xm.t M.zX].y O ;.=X&X$X&X}.:.+.sXLXUXFXS.D.4XjX1X^.A.V R.E.R.N v $.$.%XmXo.X.=.|.wXfX[.5 T w #.5.,.f.P D D ~.{.hX[.eX8X",
"}.*X XGX;XN.u N.zX|.t o *._.$X=X$X(. .L sXLXUXSX_ A.2X4X].A.E B /.E.T.N : $.$.MXmXX...| 5.[.}.<.3 T Y L 1.<.,.P D I ' ' 2X1.7X,X",
"eXwXE.GX>XT.g T.gX$XC r =._.&X&X_._.;.+.tXLXIXZX_ F.1X4X2XS.A.B T.E.T.[ : ] @.%XmXo...P +.<.}.,.= 5 Y +.5.<.<.K T t.t.j.2X_ iXeX",
"7XrX^.nX:Xm.t N.gX].r O W 4.}.}.}.[.&.+.sXLXIXZX) A.'.4X_ A.B B T.E.R.j ; $.s.8.MXo.{ G R <.7.+.3 Y T <.}.4.3.,.U t.t.' t.' eX1X",
"7XwX XnX:Xm.t M.jX!.t X %.>.(._.(.*.&.m 9XSXIXZX_ S.2X4X2XF.V B T.E.} h * @.$.%XmXX.{ +.5.<.5.L = w @.h.rXdXqX#.D I A F U ~ eX7X",
"7XfX XnX:Xm.t N.jX!.r O C >._.&X#X-.&.n &.}.ZXZX/ A.2XpX'.A.B c  .E.Q.v * @.@.%XmXX.{ K #.,.2.K = Y T u.x.x.i.u.4 D F Q ~.Q rX7X",
"}.rXXXGX>XT.g R.;X|.j + +.}.*X*X*X}.=.b n ~ }.eX/ S.].4X].S.E B  .T. .d 6 ] $.8.mXX.{ O.%.,.<.K < w p.x.x.x.i.u.3 A ^ '.=X&.rX<X",
"7XfXE.GX>XT.t D.gX{.c r C >._._.4._.=.n J W '.<X/ A.1X4X2XS.V B | } } s * ] ] %XmXo.{ +.<.;.6.+.* w w u.i.i.u.q 5 I U t.h.! rX7X",
"7XfXL.bX:Xm.t M.jXS.t O | :.:._./.:.=.n P &.[.0X/ A.'.4X'.A.B B C } C % ; $.$.8.mXo...;.tXBXhX;.= Y T u.i.i.u.e.I j.j.xXxX5.rX7X",
"qXkX XnX:Xm.t M.gXS.t O | *.-._._. .&.J J ~ 1.<X^ Z.2X1X'.A.^ Q C :.j % ; $.$.8.mXo.{ +.5.}.3.L = T w d.x.i.u.e.> I U ' U P dXqX",
"qXkX`.GXbXT.g !.zX$Xj r | _.}.[.[.>.=.b n W 1.6.^ A._ 2XF./ B B C | h & ; $.@.8.NXo.{ +.:.>.=.n = T T h.kXdXpX2.D A A F ! P dXeX",
"qXhX XnX@Xm.t M.zX`.y O %._._.>.>.>.=.G n ~ 1.6.^ A.2X1X'./ ^ B m j h l 4 $.$.8.NXQ.[ %._._._.b < T T 3.=XqX}.,.0 > D c -.~ pXqX",
"7XfXL.bX:Xm.t V jXF.y O | _.(.&X&X>.&.b F Q 1.5.! A._ 2X1.A.B F m h a & : k.$.8.NXmX[ %././._.m 3 T @.,.:.=.&.K > # B C !.W rX0X",
"7XhXL.nX:Xb.t V jXS.t O | *./.#X(.:.:.n L &.1.5./ D.|.4X].!./ C m C j s : $.$.8.NXQ.[ .././._.+.3 T T &.&.=.<.K > > z y c J rX7X",
"*XwX XnX:Xm.t M.5XG.t O | _.#X&X#X_.:.n L *.1.1.~.`.hXBXhX$X).C C  . .f ; $.O.X.NXo.{ 3.=X=X=X%.= Y Y ,.<.<.&.G # # A z F J rX*X",
"6XhX XnX;Xm.t !.zX{.c r %._.$X$X$X$X#Xm m W 1.1.Z !.{.|.'.T.Z c N N N j * @.@...NXQ.[ *XBXBXBX9.= 5 7 ,.<.&.&.+.D F P W ~ &.wX7X",
"7XdX!.-XXXZ B !.-X~.B z C :.:.>.=.:.| n W &.1.<.W Z Q *.( C m L |  .Z j ; 7 ] ..%X#X..8XtXtXtX7.3 6 7 8XaXtXqX7X' P ' P ~ <.pX7X",
"6.6XeXpXeXpX0XeXpXiXiX0XqX0XeX7X7X0XqX0X7X0XiX9X0X0X0X0X0X0X0XiXpXeXeXqXuXuX0XeXpXqX7XeX8XaXiXiX,Xl.6XqXiXpXtXpXiXpXiXpX0XeXuXh.",
"6XqX8X6X6X,X6X,Xl.6X9Xl.6X6X,Xl.l.g.h.6X7X9X9X7X9XqX9X<X6X9X,X8X6X9X9X0X9X9X0X9X9X9X6X6Xl.,X,Xh.,X,X6X,X6X6X,X,X9X0X0X9X0XuXiX9X",
"lXrXn l l l l d s s d $ a s s d i s d s z d d s d d d a d d d s d d d f f d f d a d d d d s i s s s s z d s s d d s d d f j wXlX",
"BXfXB V / V B f o o $ $ o o $ $ & o o o o o o o o O o o o o o o o o o o $ o $ o o $ o o o o o o o o o o o o o o o o o o o h tXBX",
"HXkXQ V A.A.) F + o O $ O = < 7 w < * + + o o o o o o o o o O O O o o o o O o o o o o o o o o o o o o o o o o o o o o o o f hXHX",
"HXhXQ !.N.N.~.c @ = 2 # @ @ 1 w w 2 = < Y T Y Y 4 & o $ $ $ o # . @ 4 0 3 3 + o r o o o o o o O O O o o O o o o o o o o o a fXHX",
"HXfX^ /.!.!.!.F 3 Y s.T < @ w s.k.@.3 4 F ! ' J x O.O.G : : * @ X > 0 0 0 4 - z x z x z x x z r o r r o O s d d O O o o o a hXAX",
"HXlXA.!.Z ^ ^.c 4 r.j.a.4 1 7 p.p.w < G _ 2XH./ Q k.k.2.$.$.7 A X I t.I I Y z F Q W Q P Q B m l v m j g o [ %.m + O o i r h dXHX",
"KXlX^.;XXXXX;X^ Y t.v.a.I 1 6 e w.6 2 H G.3X4XG.! aXVXaXk.z.#.U ` Z.H.!.!.! c ) _ ( *.*.( W &.J +.+.L l s /.&XE.m O r i i h kXHX",
"JXlX^.`. X^.`.E 0.r.r.r.9 , q w.y.6 2 H ].3X4XG.! 5.v.v.$.7 D C.V.U.Y.P.J.` F ) ) -.{.}.*.Q &.=.3.=X3.v &  ././.C o i p i j kXJX",
"KXBX! G D D G P 9 q.d.r., , q e w.q 6 H ].5X5XG.! oXcXcXF.E S C.n.U.Y.P.J.` F Q ( ) ( ) Q ( ) 3.5.8Xg.D = C ( ^ C o r i r h hXJX",
"KXlX' . . . @ F 9 q.r.e., 1 6 ] p.q < H ].jX5X]./ oXcXcXF.` S C.J.K.Y.Y.J.Z.F Q ^ ( ) ) ) Q &.~ <.5.<.J % - F B A + r p i h kXJX",
"KXlXQ .   . . F 0.q.d.q., > T c.v.$.7 P F.5X5XG.E 4XxXxXS S S C.n.P.P.P.J.` c -.~.~.~.~.[.-.) c n n J x i # A S A y o i a h BXJX",
"KXlXJ . . . . F 9 q.d.e.8 2 O.c.v.p.6 H '.jX5X].Q ;.f.a.G G F b.n.V.P.Y.J.` c {.|.{.~.~.{.|.1.z D A I D i + A A y A o p p h sXJX",
"KXlXF @ . . @ F , q.r.q.8 1 q d.s.e 6 H G.5X3XG./ aXPXaXk.2.' C.n.J.P.Y.J.` c {.{.~.{.'.-.'.1.F F F U D r + F F F F + i p h sXJX",
"KXlX) ( _ _ -.! 9 q.e.q., 1 e d.d.e 6 H H.3X3XG.( 9.DXVX8XaX,.C.n.B.J.K.L.` z {.|.|.{.[.}.{.*.,.h.f.<.m s + ~ <.~ c o i p h pXAX",
"lXiX!.;X.XXX;X^ , q.r.q., 1 e d.d.e 6 H ].jX4X].*.z.DXDXz.2.,.n.n.B.P.K.J.` y {.|.=X-X|.|.|.~ x z x n r i O s y D 4 O r r a h.wX",
"0X<X!.+XD.oX@X_ 9 0.e.q., 1 q d.d.e 2 H H.OX3XG.) 2.2.$.O.: k C.B.B.P.K.J.` y -.).|.-X=X'.~.P D D 4 5 + p $ + D 4 4 X O i a 6.}.",
"[.1X^.XXA.E.XXA.9 0.e.q., 1 w w.p.e 6 H G.3XOXG.! R j.v.I D z b.B.V.K.Y.J.` c -.).{.=X|.*.~.~ Y I 5 0 = i i @ 7 0 5 @ O i h }.6.",
"[.wX).;X+X@X;X! 9 0.e.0., 1 q y.p.e 2 H D.3XOXS./ +.v.v.T D A b.B.V.P.K.L.` c ~.{.).{.).).!.~ R a.a.a.Y i p = K R R J + p h }.[.",
"6.=XS.^. X^.oXQ 9 0.q.0., 1 2 y.y.q 2 H ].5XjX].! L v.j.I 4 A b.B.U.P.P.I.` c -.).|.=X|.'.*.L F P L K l a p + j m k - + p j }.7.",
"}.wX^.;X.X.X@X^ 8 0.q.0., 1 q y.y.e 2 H D.3XOXG.) 2.2.2.O.v v S m.B.P.Y.I.` c -.~.|.gXwX~.*.c ; 4 G 2 * i i X * ; v - O i j *X}.",
"}.rX^.+X^..X.X^ 8 0.q.0., 1 q w.y.q 6 H H.OXOXG.*.8XLXCXk.k.2.b.B.U.P.K.D.` F ].=X|.|.|.'.~.J ; b m ; @ a i % % f N & $ p j wX*X",
"7XfXD. X/ ^..X! , 0.q.0.1 1 q y.p.e 2 H L.3XOXG.) :.aXz.k.k.K b.n.n.P.Y.L.` c |.|.|.|.|.'.~.J - 3 6 6 - f a % % - j - $ i j wX*X",
"7XrX^.;XoXXX+XV , 0.0.0.1 1 q y.p.e 2 H  X5XOXH._ 8.VX$.: 2.O.u u b.C.B.Z.` c [.).~.{.~.~.~.P +.<.<.,.n h a % X ; G : % i j eX7X",
"<XrX].XXA.^.oXQ , q.e.0., 1 e y.p.] 2 H ].5X5X'.:.9.VXCX2.$.O.@   X A D G 4 y *.~.*.*.Z '.[.n W %.,.+.: f f o $ C C j a i j eX6X",
"0XpX!.+XS. X+XF , 0.e.0., 8 w.y.d.e q H  X5XOXF.1.9.CXCXk.$.#.0 # D t.#.#.T y Q *.*.*.~.).(.n %.<.*Xl.+.a a i O f B C n o j pX0X",
"eXdX'.@X X X`.B 9 q.r.0.8 1 q y.d.e 6 H oX3XOXF._ k.z.VXk.$.O.F r X Y H P H z ~ *.*.-.-.~.!.c | [ W &. .h a p + g } } C o h tXqX",
"7XrXS.^.^.L.S.F D R j.T 7 1 ] d.d.w 6 P L.3X1XF.-.k.k.z.k.$.H t r   1 D ! F z &.=.-.'.[.).).c b b G +.| h p p o g M M N o h tX7X",
"qXdX_ D.D.D./ F D T a.T 0 2 ] s.s.w w H H.oX2XF._ k.z.k.k.O.: u B ; 2 ' F.F # Q ( -.'.~.|.|.c l k b C } h p i O r g N N s j tXqX",
"6XeX*.*.*._ ( J T a.j.t.T T s.j.k.a.@.R '.2X<X[.1.f.2.$.+.K K Z.E D R ' Z.! F Q 1.[.,X'.|.<XP 4 - - - - j C j z N T.} C l C eX6X",
",XeXdXdXkXkXkXkXsXlXlXdXdXdXtXsXdXdXdXdXkXlXlXhXhXkXkXkXkXrXkXkXkXdXdXlXkXkXkXdXkXkXkXlXlXlXlXsXdXdXtXdXkXkXkXkXpXkXlXkXrXdXqX,X",
"0XwX0X0X0X<X7X0X7X0XwX0X0XeX0X0X0Xg.,X7XeXeXeXeXeXeXeXeX0X0X0X0XqXeXeXeXeXeXeXeXeXeX0X0X7X6X<X9X7X7X7XqX0X0X0X0X0XeXeXeXeXqX7XwX"
};
